solid OpenSCAD_Model
  facet normal -0.994522 0.104528 0
    outer loop
      vertex -7.7 4.9 0
      vertex -7.61478 5.71086 5
      vertex -7.61478 5.71086 0
    endloop
  endfacet
  facet normal -0.994522 0.104528 0
    outer loop
      vertex -7.61478 5.71086 5
      vertex -7.7 4.9 0
      vertex -7.7 4.9 5
    endloop
  endfacet
  facet normal 0.587785 0.809017 -0
    outer loop
      vertex -1.19039 7.79826 0
      vertex -1.46552 7.99816 5
      vertex -1.19039 7.79826 5
    endloop
  endfacet
  facet normal 0.587785 0.809017 0
    outer loop
      vertex -1.46552 7.99816 5
      vertex -1.19039 7.79826 0
      vertex -1.46552 7.99816 0
    endloop
  endfacet
  facet normal -1 0 0
    outer loop
      vertex -7.7 3.8147e-07 0
      vertex -7.7 4.9 5
      vertex -7.7 4.9 0
    endloop
  endfacet
  facet normal -1 -0 0
    outer loop
      vertex -7.7 4.9 5
      vertex -7.7 3.8147e-07 0
      vertex -7.7 3.8147e-07 5
    endloop
  endfacet
  facet normal 0 0 -1
    outer loop
      vertex 6.17522 3.84248 0
      vertex 7.7 4.9 0
      vertex 7.7 3.8147e-07 0
    endloop
  endfacet
  facet normal 0 -0 -1
    outer loop
      vertex 6.34318 4.35943 0
      vertex 7.7 4.9 0
      vertex 6.17522 3.84248 0
    endloop
  endfacet
  facet normal 0 0 -1
    outer loop
      vertex 7.7 4.9 0
      vertex 6.4 4.9 0
      vertex 7.61478 5.71086 0
    endloop
  endfacet
  facet normal -0 0 -1
    outer loop
      vertex 7.61478 5.71086 0
      vertex 6.34318 5.44057 0
      vertex 7.36283 6.48627 0
    endloop
  endfacet
  facet normal 0 0 -1
    outer loop
      vertex 6.17522 5.95752 0
      vertex 7.36283 6.48627 0
      vertex 6.34318 5.44057 0
    endloop
  endfacet
  facet normal 0 0 -1
    outer loop
      vertex 6.34318 5.44057 0
      vertex 7.61478 5.71086 0
      vertex 6.4 4.9 0
    endloop
  endfacet
  facet normal 0 -0 -1
    outer loop
      vertex 6.4 4.9 0
      vertex 7.7 4.9 0
      vertex 6.34318 4.35943 0
    endloop
  endfacet
  facet normal 0 0 -1
    outer loop
      vertex 7.7 3.8147e-07 0
      vertex 5.90344 3.37176 0
      vertex 6.17522 3.84248 0
    endloop
  endfacet
  facet normal 0 0 -1
    outer loop
      vertex 7.7 3.8147e-07 0
      vertex 5.53974 2.96782 0
      vertex 5.90344 3.37176 0
    endloop
  endfacet
  facet normal 0 0 -1
    outer loop
      vertex 7.7 3.8147e-07 0
      vertex 5.1 2.64833 0
      vertex 5.53974 2.96782 0
    endloop
  endfacet
  facet normal 0 0 -1
    outer loop
      vertex 7.7 3.8147e-07 0
      vertex 4.60344 2.42725 0
      vertex 5.1 2.64833 0
    endloop
  endfacet
  facet normal 0 0 -1
    outer loop
      vertex 7.7 3.8147e-07 0
      vertex 4.07177 2.31424 0
      vertex 4.60344 2.42725 0
    endloop
  endfacet
  facet normal 0 0 -1
    outer loop
      vertex 7.7 3.8147e-07 0
      vertex 3.52823 2.31424 0
      vertex 4.07177 2.31424 0
    endloop
  endfacet
  facet normal 0 0 -1
    outer loop
      vertex 7.7 3.8147e-07 0
      vertex 2.99656 2.42725 0
      vertex 3.52823 2.31424 0
    endloop
  endfacet
  facet normal 0 0 -1
    outer loop
      vertex -2.99656 2.42725 0
      vertex 2.99656 2.42725 0
      vertex 7.7 3.8147e-07 0
    endloop
  endfacet
  facet normal 0 0 -1
    outer loop
      vertex 1.69656 6.42824 0
      vertex 0.644834 7.19236 0
      vertex 1.19039 7.79826 0
    endloop
  endfacet
  facet normal 0 0 -1
    outer loop
      vertex 0 5.75633 0
      vertex 1.2 4.9 0
      vertex 1.25682 4.35943 0
    endloop
  endfacet
  facet normal 0 0 -1
    outer loop
      vertex 1.25682 5.44057 0
      vertex 0.237173 6.48627 0
      vertex 0.644834 7.19236 0
    endloop
  endfacet
  facet normal 0 0 -1
    outer loop
      vertex -1.25682 4.35943 0
      vertex 1.25682 4.35943 0
      vertex 1.42478 3.84248 0
    endloop
  endfacet
  facet normal 0 0 -1
    outer loop
      vertex 1.25682 5.44057 0
      vertex 0 5.75633 0
      vertex 0.237173 6.48627 0
    endloop
  endfacet
  facet normal 0 0 -1
    outer loop
      vertex -1.42478 3.84248 0
      vertex 1.42478 3.84248 0
      vertex 1.69656 3.37176 0
    endloop
  endfacet
  facet normal 0 0 -1
    outer loop
      vertex -1.42478 5.95752 0
      vertex -0.237173 6.48627 0
      vertex 0 5.75633 0
    endloop
  endfacet
  facet normal -0 0 -1
    outer loop
      vertex -0.237173 6.48627 0
      vertex -1.42478 5.95752 0
      vertex -0.644834 7.19236 0
    endloop
  endfacet
  facet normal 0 0 -1
    outer loop
      vertex -1.25682 5.44057 0
      vertex 0 5.75633 0
      vertex -1.2 4.9 0
    endloop
  endfacet
  facet normal 0 0 -1
    outer loop
      vertex 1.25682 4.35943 0
      vertex -1.25682 4.35943 0
      vertex 0 5.75633 0
    endloop
  endfacet
  facet normal 0 0 -1
    outer loop
      vertex -1.69656 3.37176 0
      vertex 1.69656 3.37176 0
      vertex 2.06026 2.96782 0
    endloop
  endfacet
  facet normal 0 0 -1
    outer loop
      vertex -2.06026 2.96782 0
      vertex 2.06026 2.96782 0
      vertex 2.5 2.64833 0
    endloop
  endfacet
  facet normal 0 0 -1
    outer loop
      vertex 0 5.75633 0
      vertex -1.25682 4.35943 0
      vertex -1.2 4.9 0
    endloop
  endfacet
  facet normal 0 0 -1
    outer loop
      vertex 2.99656 2.42725 0
      vertex -2.99656 2.42725 0
      vertex 2.5 2.64833 0
    endloop
  endfacet
  facet normal 0 0 -1
    outer loop
      vertex 1.42478 3.84248 0
      vertex -1.42478 3.84248 0
      vertex -1.25682 4.35943 0
    endloop
  endfacet
  facet normal 0 0 -1
    outer loop
      vertex 1.69656 3.37176 0
      vertex -1.69656 3.37176 0
      vertex -1.42478 3.84248 0
    endloop
  endfacet
  facet normal 0 0 -1
    outer loop
      vertex 2.06026 2.96782 0
      vertex -2.06026 2.96782 0
      vertex -1.69656 3.37176 0
    endloop
  endfacet
  facet normal 0 0 -1
    outer loop
      vertex 2.5 2.64833 0
      vertex -2.5 2.64833 0
      vertex -2.06026 2.96782 0
    endloop
  endfacet
  facet normal -0 0 -1
    outer loop
      vertex 2.5 2.64833 0
      vertex -2.99656 2.42725 0
      vertex -2.5 2.64833 0
    endloop
  endfacet
  facet normal 0 0 -1
    outer loop
      vertex -7.7 3.8147e-07 0
      vertex -2.99656 2.42725 0
      vertex 7.7 3.8147e-07 0
    endloop
  endfacet
  facet normal 0 0 -1
    outer loop
      vertex -2.99656 2.42725 0
      vertex -7.7 3.8147e-07 0
      vertex -3.52823 2.31424 0
    endloop
  endfacet
  facet normal 0 0 -1
    outer loop
      vertex -5.90344 6.42824 0
      vertex -6.95517 7.19236 0
      vertex -6.40961 7.79826 0
    endloop
  endfacet
  facet normal 0 0 -1
    outer loop
      vertex -7.7 4.9 0
      vertex -6.4 4.9 0
      vertex -6.34318 4.35943 0
    endloop
  endfacet
  facet normal 0 0 -1
    outer loop
      vertex -6.34318 5.44057 0
      vertex -7.36283 6.48627 0
      vertex -6.95517 7.19236 0
    endloop
  endfacet
  facet normal 0 0 -1
    outer loop
      vertex -7.7 4.9 0
      vertex -6.34318 4.35943 0
      vertex -6.17522 3.84248 0
    endloop
  endfacet
  facet normal 0 0 -1
    outer loop
      vertex -6.34318 5.44057 0
      vertex -7.61478 5.71086 0
      vertex -7.36283 6.48627 0
    endloop
  endfacet
  facet normal 0 0 -1
    outer loop
      vertex -7.7 3.8147e-07 0
      vertex -6.17522 3.84248 0
      vertex -5.90344 3.37176 0
    endloop
  endfacet
  facet normal -0 0 -1
    outer loop
      vertex -3.52823 2.31424 0
      vertex -7.7 3.8147e-07 0
      vertex -4.07177 2.31424 0
    endloop
  endfacet
  facet normal 0 0 -1
    outer loop
      vertex -7.7 3.8147e-07 0
      vertex -4.60344 2.42725 0
      vertex -4.07177 2.31424 0
    endloop
  endfacet
  facet normal 0 0 -1
    outer loop
      vertex -7.7 3.8147e-07 0
      vertex -5.1 2.64833 0
      vertex -4.60344 2.42725 0
    endloop
  endfacet
  facet normal 0 0 -1
    outer loop
      vertex -7.7 3.8147e-07 0
      vertex -5.53974 2.96782 0
      vertex -5.1 2.64833 0
    endloop
  endfacet
  facet normal 0 0 -1
    outer loop
      vertex -7.7 3.8147e-07 0
      vertex -5.90344 3.37176 0
      vertex -5.53974 2.96782 0
    endloop
  endfacet
  facet normal -0 0 -1
    outer loop
      vertex -6.17522 3.84248 0
      vertex -7.7 3.8147e-07 0
      vertex -7.7 4.9 0
    endloop
  endfacet
  facet normal 0 0 -1
    outer loop
      vertex -6.4 4.9 0
      vertex -7.7 4.9 0
      vertex -7.61478 5.71086 0
    endloop
  endfacet
  facet normal -0 0 -1
    outer loop
      vertex 7.36283 6.48627 0
      vertex 6.17522 5.95752 0
      vertex 6.95517 7.19236 0
    endloop
  endfacet
  facet normal 0 0 -1
    outer loop
      vertex 5.90344 6.42824 0
      vertex 6.95517 7.19236 0
      vertex 6.17522 5.95752 0
    endloop
  endfacet
  facet normal -0 0 -1
    outer loop
      vertex 6.95517 7.19236 0
      vertex 5.90344 6.42824 0
      vertex 6.40961 7.79826 0
    endloop
  endfacet
  facet normal 0 0 -1
    outer loop
      vertex 5.53974 6.83218 0
      vertex 6.40961 7.79826 0
      vertex 5.90344 6.42824 0
    endloop
  endfacet
  facet normal -0 0 -1
    outer loop
      vertex 6.40961 7.79826 0
      vertex 5.53974 6.83218 0
      vertex 6.13448 7.99816 0
    endloop
  endfacet
  facet normal 0 0 -1
    outer loop
      vertex 6.13448 7.99816 0
      vertex 5.53974 6.83218 0
      vertex 5.48024 6.87541 0
    endloop
  endfacet
  facet normal 0 0 -1
    outer loop
      vertex 2.06026 6.83218 0
      vertex 1.46552 7.99816 0
      vertex 2.11976 6.87541 0
    endloop
  endfacet
  facet normal 0 0 -1
    outer loop
      vertex 1.19039 7.79826 0
      vertex 2.06026 6.83218 0
      vertex 1.69656 6.42824 0
    endloop
  endfacet
  facet normal 0 0 -1
    outer loop
      vertex 0.644834 7.19236 0
      vertex 1.69656 6.42824 0
      vertex 1.42478 5.95752 0
    endloop
  endfacet
  facet normal 0 0 -1
    outer loop
      vertex 0.644834 7.19236 0
      vertex 1.42478 5.95752 0
      vertex 1.25682 5.44057 0
    endloop
  endfacet
  facet normal 0 0 -1
    outer loop
      vertex 0 5.75633 0
      vertex 1.25682 5.44057 0
      vertex 1.2 4.9 0
    endloop
  endfacet
  facet normal 0 0 -1
    outer loop
      vertex 2.06026 6.83218 0
      vertex 1.19039 7.79826 0
      vertex 1.46552 7.99816 0
    endloop
  endfacet
  facet normal 0 0 -1
    outer loop
      vertex -1.42478 5.95752 0
      vertex 0 5.75633 0
      vertex -1.25682 5.44057 0
    endloop
  endfacet
  facet normal 0 0 -1
    outer loop
      vertex -0.644834 7.19236 0
      vertex -1.42478 5.95752 0
      vertex -1.69656 6.42824 0
    endloop
  endfacet
  facet normal -0 0 -1
    outer loop
      vertex -0.644834 7.19236 0
      vertex -1.69656 6.42824 0
      vertex -1.19039 7.79826 0
    endloop
  endfacet
  facet normal 0 0 -1
    outer loop
      vertex -2.06026 6.83218 0
      vertex -1.19039 7.79826 0
      vertex -1.69656 6.42824 0
    endloop
  endfacet
  facet normal -0 0 -1
    outer loop
      vertex -1.19039 7.79826 0
      vertex -2.06026 6.83218 0
      vertex -1.46552 7.99816 0
    endloop
  endfacet
  facet normal 0 0 -1
    outer loop
      vertex -1.46552 7.99816 0
      vertex -2.06026 6.83218 0
      vertex -2.11976 6.87541 0
    endloop
  endfacet
  facet normal 0 0 -1
    outer loop
      vertex -5.53974 6.83218 0
      vertex -6.13448 7.99816 0
      vertex -5.48024 6.87541 0
    endloop
  endfacet
  facet normal 0 0 -1
    outer loop
      vertex -6.40961 7.79826 0
      vertex -5.53974 6.83218 0
      vertex -5.90344 6.42824 0
    endloop
  endfacet
  facet normal 0 0 -1
    outer loop
      vertex -6.95517 7.19236 0
      vertex -5.90344 6.42824 0
      vertex -6.17522 5.95752 0
    endloop
  endfacet
  facet normal 0 0 -1
    outer loop
      vertex -6.95517 7.19236 0
      vertex -6.17522 5.95752 0
      vertex -6.34318 5.44057 0
    endloop
  endfacet
  facet normal 0 0 -1
    outer loop
      vertex -7.61478 5.71086 0
      vertex -6.34318 5.44057 0
      vertex -6.4 4.9 0
    endloop
  endfacet
  facet normal 0 0 -1
    outer loop
      vertex -5.53974 6.83218 0
      vertex -6.40961 7.79826 0
      vertex -6.13448 7.99816 0
    endloop
  endfacet
  facet normal 0 -1 0
    outer loop
      vertex -7.7 3.8147e-07 0
      vertex 7.7 3.8147e-07 5
      vertex -7.7 3.8147e-07 5
    endloop
  endfacet
  facet normal 0 -1 -0
    outer loop
      vertex 7.7 3.8147e-07 5
      vertex -7.7 3.8147e-07 0
      vertex 7.7 3.8147e-07 0
    endloop
  endfacet
  facet normal 0 0 1
    outer loop
      vertex -6.13448 7.99816 5
      vertex -5.53974 6.83218 5
      vertex -5.48024 6.87541 5
    endloop
  endfacet
  facet normal -0 0 1
    outer loop
      vertex -6.40961 7.79826 5
      vertex -5.53974 6.83218 5
      vertex -6.13448 7.99816 5
    endloop
  endfacet
  facet normal 0 0 1
    outer loop
      vertex -5.53974 6.83218 5
      vertex -6.40961 7.79826 5
      vertex -5.90344 6.42824 5
    endloop
  endfacet
  facet normal -0 0 1
    outer loop
      vertex -6.95517 7.19236 5
      vertex -5.90344 6.42824 5
      vertex -6.40961 7.79826 5
    endloop
  endfacet
  facet normal 0 0 1
    outer loop
      vertex -5.90344 6.42824 5
      vertex -6.95517 7.19236 5
      vertex -6.17522 5.95752 5
    endloop
  endfacet
  facet normal -0 0 1
    outer loop
      vertex -7.36283 6.48627 5
      vertex -6.17522 5.95752 5
      vertex -6.95517 7.19236 5
    endloop
  endfacet
  facet normal 0 0 1
    outer loop
      vertex 1.46552 7.99816 5
      vertex 2.06026 6.83218 5
      vertex 2.11976 6.87541 5
    endloop
  endfacet
  facet normal -0 0 1
    outer loop
      vertex 1.19039 7.79826 5
      vertex 2.06026 6.83218 5
      vertex 1.46552 7.99816 5
    endloop
  endfacet
  facet normal 0 0 1
    outer loop
      vertex 2.06026 6.83218 5
      vertex 1.19039 7.79826 5
      vertex 1.69656 6.42824 5
    endloop
  endfacet
  facet normal -0 0 1
    outer loop
      vertex 0.644834 7.19236 5
      vertex 1.69656 6.42824 5
      vertex 1.19039 7.79826 5
    endloop
  endfacet
  facet normal 0 0 1
    outer loop
      vertex 1.69656 6.42824 5
      vertex 0.644834 7.19236 5
      vertex 1.42478 5.95752 5
    endloop
  endfacet
  facet normal -0 0 1
    outer loop
      vertex 0.237173 6.48627 5
      vertex 1.42478 5.95752 5
      vertex 0.644834 7.19236 5
    endloop
  endfacet
  facet normal 0 0 1
    outer loop
      vertex 7.61478 5.71086 5
      vertex 6.34318 5.44057 5
      vertex 6.4 4.9 5
    endloop
  endfacet
  facet normal 0 0 1
    outer loop
      vertex 6.95517 7.19236 5
      vertex 6.17522 5.95752 5
      vertex 6.34318 5.44057 5
    endloop
  endfacet
  facet normal 0 0 1
    outer loop
      vertex 5.53974 6.83218 5
      vertex 6.40961 7.79826 5
      vertex 6.13448 7.99816 5
    endloop
  endfacet
  facet normal 0 0 1
    outer loop
      vertex 6.95517 7.19236 5
      vertex 5.90344 6.42824 5
      vertex 6.17522 5.95752 5
    endloop
  endfacet
  facet normal 0 0 1
    outer loop
      vertex 6.40961 7.79826 5
      vertex 5.53974 6.83218 5
      vertex 5.90344 6.42824 5
    endloop
  endfacet
  facet normal 0 -0 1
    outer loop
      vertex 5.53974 6.83218 5
      vertex 6.13448 7.99816 5
      vertex 5.48024 6.87541 5
    endloop
  endfacet
  facet normal 0 0 1
    outer loop
      vertex 6.4 4.9 5
      vertex 7.7 4.9 5
      vertex 7.61478 5.71086 5
    endloop
  endfacet
  facet normal 0 0 1
    outer loop
      vertex 6.34318 5.44057 5
      vertex 7.61478 5.71086 5
      vertex 7.36283 6.48627 5
    endloop
  endfacet
  facet normal 0 0 1
    outer loop
      vertex 6.34318 5.44057 5
      vertex 7.36283 6.48627 5
      vertex 6.95517 7.19236 5
    endloop
  endfacet
  facet normal 0 0 1
    outer loop
      vertex 5.90344 6.42824 5
      vertex 6.95517 7.19236 5
      vertex 6.40961 7.79826 5
    endloop
  endfacet
  facet normal 0 0 1
    outer loop
      vertex 7.7 4.9 5
      vertex 6.4 4.9 5
      vertex 6.34318 4.35943 5
    endloop
  endfacet
  facet normal 0 0 1
    outer loop
      vertex 7.7 4.9 5
      vertex 6.34318 4.35943 5
      vertex 6.17522 3.84248 5
    endloop
  endfacet
  facet normal 0 0 1
    outer loop
      vertex 7.7 4.9 5
      vertex 6.17522 3.84248 5
      vertex 7.7 3.8147e-07 5
    endloop
  endfacet
  facet normal -0 0 1
    outer loop
      vertex 5.90344 3.37176 5
      vertex 7.7 3.8147e-07 5
      vertex 6.17522 3.84248 5
    endloop
  endfacet
  facet normal -0 0 1
    outer loop
      vertex 5.53974 2.96782 5
      vertex 7.7 3.8147e-07 5
      vertex 5.90344 3.37176 5
    endloop
  endfacet
  facet normal -0 0 1
    outer loop
      vertex 5.1 2.64833 5
      vertex 7.7 3.8147e-07 5
      vertex 5.53974 2.96782 5
    endloop
  endfacet
  facet normal -0 0 1
    outer loop
      vertex 4.60344 2.42725 5
      vertex 7.7 3.8147e-07 5
      vertex 5.1 2.64833 5
    endloop
  endfacet
  facet normal -0 0 1
    outer loop
      vertex 4.07177 2.31424 5
      vertex 7.7 3.8147e-07 5
      vertex 4.60344 2.42725 5
    endloop
  endfacet
  facet normal -0 0 1
    outer loop
      vertex 3.52823 2.31424 5
      vertex 7.7 3.8147e-07 5
      vertex 4.07177 2.31424 5
    endloop
  endfacet
  facet normal 0 0 1
    outer loop
      vertex 2.99656 2.42725 5
      vertex 7.7 3.8147e-07 5
      vertex 3.52823 2.31424 5
    endloop
  endfacet
  facet normal 0 0 1
    outer loop
      vertex -2.99656 2.42725 5
      vertex 2.99656 2.42725 5
      vertex 2.5 2.64833 5
    endloop
  endfacet
  facet normal 0 0 1
    outer loop
      vertex 0 5.75633 5
      vertex 1.42478 5.95752 5
      vertex 0.237173 6.48627 5
    endloop
  endfacet
  facet normal 0 0 1
    outer loop
      vertex 1.42478 5.95752 5
      vertex 0 5.75633 5
      vertex 1.25682 5.44057 5
    endloop
  endfacet
  facet normal 0 0 1
    outer loop
      vertex 1.25682 5.44057 5
      vertex 0 5.75633 5
      vertex 1.2 4.9 5
    endloop
  endfacet
  facet normal 0 0 1
    outer loop
      vertex 1.2 4.9 5
      vertex 0 5.75633 5
      vertex 1.25682 4.35943 5
    endloop
  endfacet
  facet normal 0 0 1
    outer loop
      vertex -1.25682 4.35943 5
      vertex 1.25682 4.35943 5
      vertex 0 5.75633 5
    endloop
  endfacet
  facet normal 0 0 1
    outer loop
      vertex 1.25682 4.35943 5
      vertex -1.25682 4.35943 5
      vertex 1.42478 3.84248 5
    endloop
  endfacet
  facet normal 0 0 1
    outer loop
      vertex -1.42478 5.95752 5
      vertex -0.237173 6.48627 5
      vertex -0.644834 7.19236 5
    endloop
  endfacet
  facet normal 0 0 1
    outer loop
      vertex -1.69656 6.42824 5
      vertex -0.644834 7.19236 5
      vertex -1.19039 7.79826 5
    endloop
  endfacet
  facet normal 0 -0 1
    outer loop
      vertex -1.42478 5.95752 5
      vertex -0.644834 7.19236 5
      vertex -1.69656 6.42824 5
    endloop
  endfacet
  facet normal 0 0 1
    outer loop
      vertex -1.25682 4.35943 5
      vertex 0 5.75633 5
      vertex -1.2 4.9 5
    endloop
  endfacet
  facet normal 0 0 1
    outer loop
      vertex -1.42478 3.84248 5
      vertex 1.42478 3.84248 5
      vertex -1.25682 4.35943 5
    endloop
  endfacet
  facet normal 0 0 1
    outer loop
      vertex 1.42478 3.84248 5
      vertex -1.42478 3.84248 5
      vertex 1.69656 3.37176 5
    endloop
  endfacet
  facet normal 0 0 1
    outer loop
      vertex -1.69656 3.37176 5
      vertex 1.69656 3.37176 5
      vertex -1.42478 3.84248 5
    endloop
  endfacet
  facet normal 0 0 1
    outer loop
      vertex 1.69656 3.37176 5
      vertex -1.69656 3.37176 5
      vertex 2.06026 2.96782 5
    endloop
  endfacet
  facet normal 0 0 1
    outer loop
      vertex -2.06026 2.96782 5
      vertex 2.06026 2.96782 5
      vertex -1.69656 3.37176 5
    endloop
  endfacet
  facet normal 0 0 1
    outer loop
      vertex 2.06026 2.96782 5
      vertex -2.06026 2.96782 5
      vertex 2.5 2.64833 5
    endloop
  endfacet
  facet normal 0 0 1
    outer loop
      vertex -2.5 2.64833 5
      vertex 2.5 2.64833 5
      vertex -2.06026 2.96782 5
    endloop
  endfacet
  facet normal 0 0 1
    outer loop
      vertex -2.99656 2.42725 5
      vertex 2.5 2.64833 5
      vertex -2.5 2.64833 5
    endloop
  endfacet
  facet normal 0 0 1
    outer loop
      vertex 2.99656 2.42725 5
      vertex -2.99656 2.42725 5
      vertex 7.7 3.8147e-07 5
    endloop
  endfacet
  facet normal 0 0 1
    outer loop
      vertex -7.7 3.8147e-07 5
      vertex -2.99656 2.42725 5
      vertex -3.52823 2.31424 5
    endloop
  endfacet
  facet normal 0 0 1
    outer loop
      vertex -7.7 3.8147e-07 5
      vertex -3.52823 2.31424 5
      vertex -4.07177 2.31424 5
    endloop
  endfacet
  facet normal 0 0 1
    outer loop
      vertex -6.17522 5.95752 5
      vertex -7.36283 6.48627 5
      vertex -6.34318 5.44057 5
    endloop
  endfacet
  facet normal -0 0 1
    outer loop
      vertex -7.61478 5.71086 5
      vertex -6.34318 5.44057 5
      vertex -7.36283 6.48627 5
    endloop
  endfacet
  facet normal 0 0 1
    outer loop
      vertex -6.34318 5.44057 5
      vertex -7.61478 5.71086 5
      vertex -6.4 4.9 5
    endloop
  endfacet
  facet normal 0 0 1
    outer loop
      vertex -7.7 4.9 5
      vertex -6.4 4.9 5
      vertex -7.61478 5.71086 5
    endloop
  endfacet
  facet normal 0 0 1
    outer loop
      vertex -6.4 4.9 5
      vertex -7.7 4.9 5
      vertex -6.34318 4.35943 5
    endloop
  endfacet
  facet normal 0 0 1
    outer loop
      vertex -6.34318 4.35943 5
      vertex -7.7 4.9 5
      vertex -6.17522 3.84248 5
    endloop
  endfacet
  facet normal 0 0 1
    outer loop
      vertex -7.7 3.8147e-07 5
      vertex -6.17522 3.84248 5
      vertex -7.7 4.9 5
    endloop
  endfacet
  facet normal 0 0 1
    outer loop
      vertex -6.17522 3.84248 5
      vertex -7.7 3.8147e-07 5
      vertex -5.90344 3.37176 5
    endloop
  endfacet
  facet normal 0 0 1
    outer loop
      vertex -2.99656 2.42725 5
      vertex -7.7 3.8147e-07 5
      vertex 7.7 3.8147e-07 5
    endloop
  endfacet
  facet normal 0 0 1
    outer loop
      vertex -4.60344 2.42725 5
      vertex -7.7 3.8147e-07 5
      vertex -4.07177 2.31424 5
    endloop
  endfacet
  facet normal 0 0 1
    outer loop
      vertex -5.1 2.64833 5
      vertex -7.7 3.8147e-07 5
      vertex -4.60344 2.42725 5
    endloop
  endfacet
  facet normal 0 0 1
    outer loop
      vertex -5.53974 2.96782 5
      vertex -7.7 3.8147e-07 5
      vertex -5.1 2.64833 5
    endloop
  endfacet
  facet normal 0 0 1
    outer loop
      vertex -5.90344 3.37176 5
      vertex -7.7 3.8147e-07 5
      vertex -5.53974 2.96782 5
    endloop
  endfacet
  facet normal 0 0 1
    outer loop
      vertex 0 5.75633 5
      vertex -1.25682 5.44057 5
      vertex -1.2 4.9 5
    endloop
  endfacet
  facet normal 0 0 1
    outer loop
      vertex 0 5.75633 5
      vertex -1.42478 5.95752 5
      vertex -1.25682 5.44057 5
    endloop
  endfacet
  facet normal 0 0 1
    outer loop
      vertex -2.06026 6.83218 5
      vertex -1.19039 7.79826 5
      vertex -1.46552 7.99816 5
    endloop
  endfacet
  facet normal 0 0 1
    outer loop
      vertex -0.237173 6.48627 5
      vertex -1.42478 5.95752 5
      vertex 0 5.75633 5
    endloop
  endfacet
  facet normal 0 0 1
    outer loop
      vertex -1.19039 7.79826 5
      vertex -2.06026 6.83218 5
      vertex -1.69656 6.42824 5
    endloop
  endfacet
  facet normal 0 -0 1
    outer loop
      vertex -2.06026 6.83218 5
      vertex -1.46552 7.99816 5
      vertex -2.11976 6.87541 5
    endloop
  endfacet
  facet normal -0.866025 0.5 0
    outer loop
      vertex -7.36283 6.48627 0
      vertex -6.95517 7.19236 5
      vertex -6.95517 7.19236 0
    endloop
  endfacet
  facet normal -0.866025 0.5 0
    outer loop
      vertex -6.95517 7.19236 5
      vertex -7.36283 6.48627 0
      vertex -7.36283 6.48627 5
    endloop
  endfacet
  facet normal -0.951057 0.309017 0
    outer loop
      vertex -7.61478 5.71086 0
      vertex -7.36283 6.48627 5
      vertex -7.36283 6.48627 0
    endloop
  endfacet
  facet normal -0.951057 0.309017 0
    outer loop
      vertex -7.36283 6.48627 5
      vertex -7.61478 5.71086 0
      vertex -7.61478 5.71086 5
    endloop
  endfacet
  facet normal 0.951057 0.309017 0
    outer loop
      vertex 0 5.75633 5
      vertex -0.237173 6.48627 0
      vertex -0.237173 6.48627 5
    endloop
  endfacet
  facet normal 0.951057 0.309017 0
    outer loop
      vertex -0.237173 6.48627 0
      vertex 0 5.75633 5
      vertex 0 5.75633 0
    endloop
  endfacet
  facet normal 0.743144 0.669131 0
    outer loop
      vertex -0.644834 7.19236 5
      vertex -1.19039 7.79826 0
      vertex -1.19039 7.79826 5
    endloop
  endfacet
  facet normal 0.743144 0.669131 0
    outer loop
      vertex -1.19039 7.79826 0
      vertex -0.644834 7.19236 5
      vertex -0.644834 7.19236 0
    endloop
  endfacet
  facet normal -0.743144 0.669131 0
    outer loop
      vertex -6.95517 7.19236 0
      vertex -6.40961 7.79826 5
      vertex -6.40961 7.79826 0
    endloop
  endfacet
  facet normal -0.743144 0.669131 0
    outer loop
      vertex -6.40961 7.79826 5
      vertex -6.95517 7.19236 0
      vertex -6.95517 7.19236 5
    endloop
  endfacet
  facet normal -0.587785 0.809017 0
    outer loop
      vertex -6.13448 7.99816 0
      vertex -6.40961 7.79826 5
      vertex -6.13448 7.99816 5
    endloop
  endfacet
  facet normal -0.587785 0.809017 0
    outer loop
      vertex -6.40961 7.79826 5
      vertex -6.13448 7.99816 0
      vertex -6.40961 7.79826 0
    endloop
  endfacet
  facet normal 0.866025 0.5 0
    outer loop
      vertex -0.237173 6.48627 5
      vertex -0.644834 7.19236 0
      vertex -0.644834 7.19236 5
    endloop
  endfacet
  facet normal 0.866025 0.5 0
    outer loop
      vertex -0.644834 7.19236 0
      vertex -0.237173 6.48627 5
      vertex -0.237173 6.48627 0
    endloop
  endfacet
  facet normal 0.994522 -0.104528 0
    outer loop
      vertex -6.4 4.9 5
      vertex -6.34318 5.44057 0
      vertex -6.34318 5.44057 5
    endloop
  endfacet
  facet normal 0.994522 -0.104528 0
    outer loop
      vertex -6.34318 5.44057 0
      vertex -6.4 4.9 5
      vertex -6.4 4.9 0
    endloop
  endfacet
  facet normal 0.587784 -0.809018 0
    outer loop
      vertex -5.53974 6.83218 0
      vertex -5.48024 6.87541 5
      vertex -5.53974 6.83218 5
    endloop
  endfacet
  facet normal 0.587784 -0.809018 0
    outer loop
      vertex -5.48024 6.87541 5
      vertex -5.53974 6.83218 0
      vertex -5.48024 6.87541 0
    endloop
  endfacet
  facet normal -0.743144 -0.669131 0
    outer loop
      vertex -1.69656 6.42824 0
      vertex -2.06026 6.83218 5
      vertex -2.06026 6.83218 0
    endloop
  endfacet
  facet normal -0.743144 -0.669131 0
    outer loop
      vertex -2.06026 6.83218 5
      vertex -1.69656 6.42824 0
      vertex -1.69656 6.42824 5
    endloop
  endfacet
  facet normal -0.587784 -0.809018 0
    outer loop
      vertex -2.11976 6.87541 0
      vertex -2.06026 6.83218 5
      vertex -2.11976 6.87541 5
    endloop
  endfacet
  facet normal -0.587784 -0.809018 -0
    outer loop
      vertex -2.06026 6.83218 5
      vertex -2.11976 6.87541 0
      vertex -2.06026 6.83218 0
    endloop
  endfacet
  facet normal 0.866026 -0.499999 0
    outer loop
      vertex -6.17522 5.95752 5
      vertex -5.90344 6.42824 0
      vertex -5.90344 6.42824 5
    endloop
  endfacet
  facet normal 0.866026 -0.499999 0
    outer loop
      vertex -5.90344 6.42824 0
      vertex -6.17522 5.95752 5
      vertex -6.17522 5.95752 0
    endloop
  endfacet
  facet normal 0.951056 -0.309018 0
    outer loop
      vertex -6.34318 5.44057 5
      vertex -6.17522 5.95752 0
      vertex -6.17522 5.95752 5
    endloop
  endfacet
  facet normal 0.951056 -0.309018 0
    outer loop
      vertex -6.17522 5.95752 0
      vertex -6.34318 5.44057 5
      vertex -6.34318 5.44057 0
    endloop
  endfacet
  facet normal 0.743144 -0.669131 0
    outer loop
      vertex -5.90344 6.42824 5
      vertex -5.53974 6.83218 0
      vertex -5.53974 6.83218 5
    endloop
  endfacet
  facet normal 0.743144 -0.669131 0
    outer loop
      vertex -5.53974 6.83218 0
      vertex -5.90344 6.42824 5
      vertex -5.90344 6.42824 0
    endloop
  endfacet
  facet normal -0.951056 -0.309018 0
    outer loop
      vertex -1.25682 5.44057 0
      vertex -1.42478 5.95752 5
      vertex -1.42478 5.95752 0
    endloop
  endfacet
  facet normal -0.951056 -0.309018 0
    outer loop
      vertex -1.42478 5.95752 5
      vertex -1.25682 5.44057 0
      vertex -1.25682 5.44057 5
    endloop
  endfacet
  facet normal -0.866026 -0.499999 0
    outer loop
      vertex -1.42478 5.95752 0
      vertex -1.69656 6.42824 5
      vertex -1.69656 6.42824 0
    endloop
  endfacet
  facet normal -0.866026 -0.499999 0
    outer loop
      vertex -1.69656 6.42824 5
      vertex -1.42478 5.95752 0
      vertex -1.42478 5.95752 5
    endloop
  endfacet
  facet normal -0.994522 -0.104528 0
    outer loop
      vertex -1.2 4.9 0
      vertex -1.25682 5.44057 5
      vertex -1.25682 5.44057 0
    endloop
  endfacet
  facet normal -0.994522 -0.104528 0
    outer loop
      vertex -1.25682 5.44057 5
      vertex -1.2 4.9 0
      vertex -1.2 4.9 5
    endloop
  endfacet
  facet normal 0.994522 0.104528 0
    outer loop
      vertex -6.34318 4.35943 5
      vertex -6.4 4.9 0
      vertex -6.4 4.9 5
    endloop
  endfacet
  facet normal 0.994522 0.104528 0
    outer loop
      vertex -6.4 4.9 0
      vertex -6.34318 4.35943 5
      vertex -6.34318 4.35943 0
    endloop
  endfacet
  facet normal 0 1 -0
    outer loop
      vertex -3.52823 2.31424 0
      vertex -4.07177 2.31424 5
      vertex -3.52823 2.31424 5
    endloop
  endfacet
  facet normal 0 1 0
    outer loop
      vertex -4.07177 2.31424 5
      vertex -3.52823 2.31424 0
      vertex -4.07177 2.31424 0
    endloop
  endfacet
  facet normal 0.743144 0.669131 0
    outer loop
      vertex -5.53974 2.96782 5
      vertex -5.90344 3.37176 0
      vertex -5.90344 3.37176 5
    endloop
  endfacet
  facet normal 0.743144 0.669131 0
    outer loop
      vertex -5.90344 3.37176 0
      vertex -5.53974 2.96782 5
      vertex -5.53974 2.96782 0
    endloop
  endfacet
  facet normal -0.994522 0.104528 0
    outer loop
      vertex -1.25682 4.35943 0
      vertex -1.2 4.9 5
      vertex -1.2 4.9 0
    endloop
  endfacet
  facet normal -0.994522 0.104528 0
    outer loop
      vertex -1.2 4.9 5
      vertex -1.25682 4.35943 0
      vertex -1.25682 4.35943 5
    endloop
  endfacet
  facet normal -0.743144 0.669131 0
    outer loop
      vertex -2.06026 2.96782 0
      vertex -1.69656 3.37176 5
      vertex -1.69656 3.37176 0
    endloop
  endfacet
  facet normal -0.743144 0.669131 0
    outer loop
      vertex -1.69656 3.37176 5
      vertex -2.06026 2.96782 0
      vertex -2.06026 2.96782 5
    endloop
  endfacet
  facet normal -0.951056 0.309018 0
    outer loop
      vertex -1.42478 3.84248 0
      vertex -1.25682 4.35943 5
      vertex -1.25682 4.35943 0
    endloop
  endfacet
  facet normal -0.951056 0.309018 0
    outer loop
      vertex -1.25682 4.35943 5
      vertex -1.42478 3.84248 0
      vertex -1.42478 3.84248 5
    endloop
  endfacet
  facet normal -0.866026 0.499999 0
    outer loop
      vertex -1.69656 3.37176 0
      vertex -1.42478 3.84248 5
      vertex -1.42478 3.84248 0
    endloop
  endfacet
  facet normal -0.866026 0.499999 0
    outer loop
      vertex -1.42478 3.84248 5
      vertex -1.69656 3.37176 0
      vertex -1.69656 3.37176 5
    endloop
  endfacet
  facet normal 0.406738 0.913545 -0
    outer loop
      vertex -4.60344 2.42725 0
      vertex -5.1 2.64833 5
      vertex -4.60344 2.42725 5
    endloop
  endfacet
  facet normal 0.406738 0.913545 0
    outer loop
      vertex -5.1 2.64833 5
      vertex -4.60344 2.42725 0
      vertex -5.1 2.64833 0
    endloop
  endfacet
  facet normal 0.951056 0.309018 0
    outer loop
      vertex -6.17522 3.84248 5
      vertex -6.34318 4.35943 0
      vertex -6.34318 4.35943 5
    endloop
  endfacet
  facet normal 0.951056 0.309018 0
    outer loop
      vertex -6.34318 4.35943 0
      vertex -6.17522 3.84248 5
      vertex -6.17522 3.84248 0
    endloop
  endfacet
  facet normal 0.866026 0.499999 0
    outer loop
      vertex -5.90344 3.37176 5
      vertex -6.17522 3.84248 0
      vertex -6.17522 3.84248 5
    endloop
  endfacet
  facet normal 0.866026 0.499999 0
    outer loop
      vertex -6.17522 3.84248 0
      vertex -5.90344 3.37176 5
      vertex -5.90344 3.37176 0
    endloop
  endfacet
  facet normal 0.207911 0.978148 -0
    outer loop
      vertex -4.07177 2.31424 0
      vertex -4.60344 2.42725 5
      vertex -4.07177 2.31424 5
    endloop
  endfacet
  facet normal 0.207911 0.978148 0
    outer loop
      vertex -4.60344 2.42725 5
      vertex -4.07177 2.31424 0
      vertex -4.60344 2.42725 0
    endloop
  endfacet
  facet normal -0.207911 0.978148 0
    outer loop
      vertex -2.99656 2.42725 0
      vertex -3.52823 2.31424 5
      vertex -2.99656 2.42725 5
    endloop
  endfacet
  facet normal -0.207911 0.978148 0
    outer loop
      vertex -3.52823 2.31424 5
      vertex -2.99656 2.42725 0
      vertex -3.52823 2.31424 0
    endloop
  endfacet
  facet normal -0.587785 0.809017 0
    outer loop
      vertex -2.06026 2.96782 0
      vertex -2.5 2.64833 5
      vertex -2.06026 2.96782 5
    endloop
  endfacet
  facet normal -0.587785 0.809017 0
    outer loop
      vertex -2.5 2.64833 5
      vertex -2.06026 2.96782 0
      vertex -2.5 2.64833 0
    endloop
  endfacet
  facet normal 0.587785 0.809017 -0
    outer loop
      vertex -5.1 2.64833 0
      vertex -5.53974 2.96782 5
      vertex -5.1 2.64833 5
    endloop
  endfacet
  facet normal 0.587785 0.809017 0
    outer loop
      vertex -5.53974 2.96782 5
      vertex -5.1 2.64833 0
      vertex -5.53974 2.96782 0
    endloop
  endfacet
  facet normal -0.406738 0.913545 0
    outer loop
      vertex -2.5 2.64833 0
      vertex -2.99656 2.42725 5
      vertex -2.5 2.64833 5
    endloop
  endfacet
  facet normal -0.406738 0.913545 0
    outer loop
      vertex -2.99656 2.42725 5
      vertex -2.5 2.64833 0
      vertex -2.99656 2.42725 0
    endloop
  endfacet
  facet normal 0.864011 0.503473 0
    outer loop
      vertex -5.48024 6.87541 5
      vertex -6.13448 7.99816 0
      vertex -6.13448 7.99816 5
    endloop
  endfacet
  facet normal 0.864011 0.503473 0
    outer loop
      vertex -6.13448 7.99816 0
      vertex -5.48024 6.87541 5
      vertex -5.48024 6.87541 0
    endloop
  endfacet
  facet normal -0.864011 0.503473 0
    outer loop
      vertex -2.11976 6.87541 0
      vertex -1.46552 7.99816 5
      vertex -1.46552 7.99816 0
    endloop
  endfacet
  facet normal -0.864011 0.503473 0
    outer loop
      vertex -1.46552 7.99816 5
      vertex -2.11976 6.87541 0
      vertex -2.11976 6.87541 5
    endloop
  endfacet
  facet normal 0.994522 0.104528 0
    outer loop
      vertex 7.7 4.9 5
      vertex 7.61478 5.71086 0
      vertex 7.61478 5.71086 5
    endloop
  endfacet
  facet normal 0.994522 0.104528 0
    outer loop
      vertex 7.61478 5.71086 0
      vertex 7.7 4.9 5
      vertex 7.7 4.9 0
    endloop
  endfacet
  facet normal -0.587785 0.809017 0
    outer loop
      vertex 1.46552 7.99816 0
      vertex 1.19039 7.79826 5
      vertex 1.46552 7.99816 5
    endloop
  endfacet
  facet normal -0.587785 0.809017 0
    outer loop
      vertex 1.19039 7.79826 5
      vertex 1.46552 7.99816 0
      vertex 1.19039 7.79826 0
    endloop
  endfacet
  facet normal 1 -0 0
    outer loop
      vertex 7.7 3.8147e-07 5
      vertex 7.7 4.9 0
      vertex 7.7 4.9 5
    endloop
  endfacet
  facet normal 1 0 0
    outer loop
      vertex 7.7 4.9 0
      vertex 7.7 3.8147e-07 5
      vertex 7.7 3.8147e-07 0
    endloop
  endfacet
  facet normal 0.866025 0.5 0
    outer loop
      vertex 7.36283 6.48627 5
      vertex 6.95517 7.19236 0
      vertex 6.95517 7.19236 5
    endloop
  endfacet
  facet normal 0.866025 0.5 0
    outer loop
      vertex 6.95517 7.19236 0
      vertex 7.36283 6.48627 5
      vertex 7.36283 6.48627 0
    endloop
  endfacet
  facet normal 0.951057 0.309017 0
    outer loop
      vertex 7.61478 5.71086 5
      vertex 7.36283 6.48627 0
      vertex 7.36283 6.48627 5
    endloop
  endfacet
  facet normal 0.951057 0.309017 0
    outer loop
      vertex 7.36283 6.48627 0
      vertex 7.61478 5.71086 5
      vertex 7.61478 5.71086 0
    endloop
  endfacet
  facet normal -0.951057 0.309017 0
    outer loop
      vertex 0 5.75633 0
      vertex 0.237173 6.48627 5
      vertex 0.237173 6.48627 0
    endloop
  endfacet
  facet normal -0.951057 0.309017 0
    outer loop
      vertex 0.237173 6.48627 5
      vertex 0 5.75633 0
      vertex 0 5.75633 5
    endloop
  endfacet
  facet normal -0.743144 0.669131 0
    outer loop
      vertex 0.644834 7.19236 0
      vertex 1.19039 7.79826 5
      vertex 1.19039 7.79826 0
    endloop
  endfacet
  facet normal -0.743144 0.669131 0
    outer loop
      vertex 1.19039 7.79826 5
      vertex 0.644834 7.19236 0
      vertex 0.644834 7.19236 5
    endloop
  endfacet
  facet normal 0.743144 0.669131 0
    outer loop
      vertex 6.95517 7.19236 5
      vertex 6.40961 7.79826 0
      vertex 6.40961 7.79826 5
    endloop
  endfacet
  facet normal 0.743144 0.669131 0
    outer loop
      vertex 6.40961 7.79826 0
      vertex 6.95517 7.19236 5
      vertex 6.95517 7.19236 0
    endloop
  endfacet
  facet normal 0.587785 0.809017 -0
    outer loop
      vertex 6.40961 7.79826 0
      vertex 6.13448 7.99816 5
      vertex 6.40961 7.79826 5
    endloop
  endfacet
  facet normal 0.587785 0.809017 0
    outer loop
      vertex 6.13448 7.99816 5
      vertex 6.40961 7.79826 0
      vertex 6.13448 7.99816 0
    endloop
  endfacet
  facet normal -0.866025 0.5 0
    outer loop
      vertex 0.237173 6.48627 0
      vertex 0.644834 7.19236 5
      vertex 0.644834 7.19236 0
    endloop
  endfacet
  facet normal -0.866025 0.5 0
    outer loop
      vertex 0.644834 7.19236 5
      vertex 0.237173 6.48627 0
      vertex 0.237173 6.48627 5
    endloop
  endfacet
  facet normal -0.994522 -0.104528 0
    outer loop
      vertex 6.4 4.9 0
      vertex 6.34318 5.44057 5
      vertex 6.34318 5.44057 0
    endloop
  endfacet
  facet normal -0.994522 -0.104528 0
    outer loop
      vertex 6.34318 5.44057 5
      vertex 6.4 4.9 0
      vertex 6.4 4.9 5
    endloop
  endfacet
  facet normal -0.587784 -0.809018 0
    outer loop
      vertex 5.48024 6.87541 0
      vertex 5.53974 6.83218 5
      vertex 5.48024 6.87541 5
    endloop
  endfacet
  facet normal -0.587784 -0.809018 -0
    outer loop
      vertex 5.53974 6.83218 5
      vertex 5.48024 6.87541 0
      vertex 5.53974 6.83218 0
    endloop
  endfacet
  facet normal 0.743144 -0.669131 0
    outer loop
      vertex 1.69656 6.42824 5
      vertex 2.06026 6.83218 0
      vertex 2.06026 6.83218 5
    endloop
  endfacet
  facet normal 0.743144 -0.669131 0
    outer loop
      vertex 2.06026 6.83218 0
      vertex 1.69656 6.42824 5
      vertex 1.69656 6.42824 0
    endloop
  endfacet
  facet normal 0.587784 -0.809018 0
    outer loop
      vertex 2.06026 6.83218 0
      vertex 2.11976 6.87541 5
      vertex 2.06026 6.83218 5
    endloop
  endfacet
  facet normal 0.587784 -0.809018 0
    outer loop
      vertex 2.11976 6.87541 5
      vertex 2.06026 6.83218 0
      vertex 2.11976 6.87541 0
    endloop
  endfacet
  facet normal -0.866026 -0.499999 0
    outer loop
      vertex 6.17522 5.95752 0
      vertex 5.90344 6.42824 5
      vertex 5.90344 6.42824 0
    endloop
  endfacet
  facet normal -0.866026 -0.499999 0
    outer loop
      vertex 5.90344 6.42824 5
      vertex 6.17522 5.95752 0
      vertex 6.17522 5.95752 5
    endloop
  endfacet
  facet normal -0.951056 -0.309018 0
    outer loop
      vertex 6.34318 5.44057 0
      vertex 6.17522 5.95752 5
      vertex 6.17522 5.95752 0
    endloop
  endfacet
  facet normal -0.951056 -0.309018 0
    outer loop
      vertex 6.17522 5.95752 5
      vertex 6.34318 5.44057 0
      vertex 6.34318 5.44057 5
    endloop
  endfacet
  facet normal -0.743144 -0.669131 0
    outer loop
      vertex 5.90344 6.42824 0
      vertex 5.53974 6.83218 5
      vertex 5.53974 6.83218 0
    endloop
  endfacet
  facet normal -0.743144 -0.669131 0
    outer loop
      vertex 5.53974 6.83218 5
      vertex 5.90344 6.42824 0
      vertex 5.90344 6.42824 5
    endloop
  endfacet
  facet normal 0.951056 -0.309018 0
    outer loop
      vertex 1.25682 5.44057 5
      vertex 1.42478 5.95752 0
      vertex 1.42478 5.95752 5
    endloop
  endfacet
  facet normal 0.951056 -0.309018 0
    outer loop
      vertex 1.42478 5.95752 0
      vertex 1.25682 5.44057 5
      vertex 1.25682 5.44057 0
    endloop
  endfacet
  facet normal 0.866026 -0.499999 0
    outer loop
      vertex 1.42478 5.95752 5
      vertex 1.69656 6.42824 0
      vertex 1.69656 6.42824 5
    endloop
  endfacet
  facet normal 0.866026 -0.499999 0
    outer loop
      vertex 1.69656 6.42824 0
      vertex 1.42478 5.95752 5
      vertex 1.42478 5.95752 0
    endloop
  endfacet
  facet normal 0.994522 -0.104528 0
    outer loop
      vertex 1.2 4.9 5
      vertex 1.25682 5.44057 0
      vertex 1.25682 5.44057 5
    endloop
  endfacet
  facet normal 0.994522 -0.104528 0
    outer loop
      vertex 1.25682 5.44057 0
      vertex 1.2 4.9 5
      vertex 1.2 4.9 0
    endloop
  endfacet
  facet normal -0.994522 0.104528 0
    outer loop
      vertex 6.34318 4.35943 0
      vertex 6.4 4.9 5
      vertex 6.4 4.9 0
    endloop
  endfacet
  facet normal -0.994522 0.104528 0
    outer loop
      vertex 6.4 4.9 5
      vertex 6.34318 4.35943 0
      vertex 6.34318 4.35943 5
    endloop
  endfacet
  facet normal 0 1 -0
    outer loop
      vertex 4.07177 2.31424 0
      vertex 3.52823 2.31424 5
      vertex 4.07177 2.31424 5
    endloop
  endfacet
  facet normal 0 1 0
    outer loop
      vertex 3.52823 2.31424 5
      vertex 4.07177 2.31424 0
      vertex 3.52823 2.31424 0
    endloop
  endfacet
  facet normal -0.743144 0.669131 0
    outer loop
      vertex 5.53974 2.96782 0
      vertex 5.90344 3.37176 5
      vertex 5.90344 3.37176 0
    endloop
  endfacet
  facet normal -0.743144 0.669131 0
    outer loop
      vertex 5.90344 3.37176 5
      vertex 5.53974 2.96782 0
      vertex 5.53974 2.96782 5
    endloop
  endfacet
  facet normal 0.994522 0.104528 0
    outer loop
      vertex 1.25682 4.35943 5
      vertex 1.2 4.9 0
      vertex 1.2 4.9 5
    endloop
  endfacet
  facet normal 0.994522 0.104528 0
    outer loop
      vertex 1.2 4.9 0
      vertex 1.25682 4.35943 5
      vertex 1.25682 4.35943 0
    endloop
  endfacet
  facet normal 0.743144 0.669131 0
    outer loop
      vertex 2.06026 2.96782 5
      vertex 1.69656 3.37176 0
      vertex 1.69656 3.37176 5
    endloop
  endfacet
  facet normal 0.743144 0.669131 0
    outer loop
      vertex 1.69656 3.37176 0
      vertex 2.06026 2.96782 5
      vertex 2.06026 2.96782 0
    endloop
  endfacet
  facet normal 0.951056 0.309018 0
    outer loop
      vertex 1.42478 3.84248 5
      vertex 1.25682 4.35943 0
      vertex 1.25682 4.35943 5
    endloop
  endfacet
  facet normal 0.951056 0.309018 0
    outer loop
      vertex 1.25682 4.35943 0
      vertex 1.42478 3.84248 5
      vertex 1.42478 3.84248 0
    endloop
  endfacet
  facet normal 0.866026 0.499999 0
    outer loop
      vertex 1.69656 3.37176 5
      vertex 1.42478 3.84248 0
      vertex 1.42478 3.84248 5
    endloop
  endfacet
  facet normal 0.866026 0.499999 0
    outer loop
      vertex 1.42478 3.84248 0
      vertex 1.69656 3.37176 5
      vertex 1.69656 3.37176 0
    endloop
  endfacet
  facet normal -0.406738 0.913545 0
    outer loop
      vertex 5.1 2.64833 0
      vertex 4.60344 2.42725 5
      vertex 5.1 2.64833 5
    endloop
  endfacet
  facet normal -0.406738 0.913545 0
    outer loop
      vertex 4.60344 2.42725 5
      vertex 5.1 2.64833 0
      vertex 4.60344 2.42725 0
    endloop
  endfacet
  facet normal -0.951056 0.309018 0
    outer loop
      vertex 6.17522 3.84248 0
      vertex 6.34318 4.35943 5
      vertex 6.34318 4.35943 0
    endloop
  endfacet
  facet normal -0.951056 0.309018 0
    outer loop
      vertex 6.34318 4.35943 5
      vertex 6.17522 3.84248 0
      vertex 6.17522 3.84248 5
    endloop
  endfacet
  facet normal -0.866026 0.499999 0
    outer loop
      vertex 5.90344 3.37176 0
      vertex 6.17522 3.84248 5
      vertex 6.17522 3.84248 0
    endloop
  endfacet
  facet normal -0.866026 0.499999 0
    outer loop
      vertex 6.17522 3.84248 5
      vertex 5.90344 3.37176 0
      vertex 5.90344 3.37176 5
    endloop
  endfacet
  facet normal -0.207911 0.978148 0
    outer loop
      vertex 4.60344 2.42725 0
      vertex 4.07177 2.31424 5
      vertex 4.60344 2.42725 5
    endloop
  endfacet
  facet normal -0.207911 0.978148 0
    outer loop
      vertex 4.07177 2.31424 5
      vertex 4.60344 2.42725 0
      vertex 4.07177 2.31424 0
    endloop
  endfacet
  facet normal 0.207911 0.978148 -0
    outer loop
      vertex 3.52823 2.31424 0
      vertex 2.99656 2.42725 5
      vertex 3.52823 2.31424 5
    endloop
  endfacet
  facet normal 0.207911 0.978148 0
    outer loop
      vertex 2.99656 2.42725 5
      vertex 3.52823 2.31424 0
      vertex 2.99656 2.42725 0
    endloop
  endfacet
  facet normal 0.587785 0.809017 -0
    outer loop
      vertex 2.5 2.64833 0
      vertex 2.06026 2.96782 5
      vertex 2.5 2.64833 5
    endloop
  endfacet
  facet normal 0.587785 0.809017 0
    outer loop
      vertex 2.06026 2.96782 5
      vertex 2.5 2.64833 0
      vertex 2.06026 2.96782 0
    endloop
  endfacet
  facet normal -0.587785 0.809017 0
    outer loop
      vertex 5.53974 2.96782 0
      vertex 5.1 2.64833 5
      vertex 5.53974 2.96782 5
    endloop
  endfacet
  facet normal -0.587785 0.809017 0
    outer loop
      vertex 5.1 2.64833 5
      vertex 5.53974 2.96782 0
      vertex 5.1 2.64833 0
    endloop
  endfacet
  facet normal 0.406738 0.913545 -0
    outer loop
      vertex 2.99656 2.42725 0
      vertex 2.5 2.64833 5
      vertex 2.99656 2.42725 5
    endloop
  endfacet
  facet normal 0.406738 0.913545 0
    outer loop
      vertex 2.5 2.64833 5
      vertex 2.99656 2.42725 0
      vertex 2.5 2.64833 0
    endloop
  endfacet
  facet normal -0.864011 0.503473 0
    outer loop
      vertex 5.48024 6.87541 0
      vertex 6.13448 7.99816 5
      vertex 6.13448 7.99816 0
    endloop
  endfacet
  facet normal -0.864011 0.503473 0
    outer loop
      vertex 6.13448 7.99816 5
      vertex 5.48024 6.87541 0
      vertex 5.48024 6.87541 5
    endloop
  endfacet
  facet normal 0.864011 0.503473 0
    outer loop
      vertex 2.11976 6.87541 5
      vertex 1.46552 7.99816 0
      vertex 1.46552 7.99816 5
    endloop
  endfacet
  facet normal 0.864011 0.503473 0
    outer loop
      vertex 1.46552 7.99816 0
      vertex 2.11976 6.87541 5
      vertex 2.11976 6.87541 0
    endloop
  endfacet
  facet normal -1 0 0
    outer loop
      vertex 0.85 -2 0
      vertex 0.85 0 5
      vertex 0.85 0 0
    endloop
  endfacet
  facet normal -1 -0 0
    outer loop
      vertex 0.85 0 5
      vertex 0.85 -2 0
      vertex 0.85 -2 5
    endloop
  endfacet
  facet normal -0 0 1
    outer loop
      vertex 5.49737 -1.37451 5
      vertex 6.75 -2 5
      vertex 6.75 0 5
    endloop
  endfacet
  facet normal 0 0 1
    outer loop
      vertex 6.75 -2 5
      vertex 5.53529 -1.73529 5
      vertex 5.57 -5.64 5
    endloop
  endfacet
  facet normal 0 0 1
    outer loop
      vertex 6.75 -2 5
      vertex 5.49737 -1.37451 5
      vertex 5.53529 -1.73529 5
    endloop
  endfacet
  facet normal 0 0 1
    outer loop
      vertex 6.75 0 5
      vertex 5.38527 -1.02949 5
      vertex 5.49737 -1.37451 5
    endloop
  endfacet
  facet normal 0 0 1
    outer loop
      vertex 6.75 0 5
      vertex 5.20388 -0.715313 5
      vertex 5.38527 -1.02949 5
    endloop
  endfacet
  facet normal 0 0 1
    outer loop
      vertex 6.75 0 5
      vertex 4.96114 -0.445719 5
      vertex 5.20388 -0.715313 5
    endloop
  endfacet
  facet normal 0 0 1
    outer loop
      vertex 6.75 0 5
      vertex 4.66765 -0.232485 5
      vertex 4.96114 -0.445719 5
    endloop
  endfacet
  facet normal 0 0 1
    outer loop
      vertex 6.75 0 5
      vertex 4.33624 -0.0849304 5
      vertex 4.66765 -0.232485 5
    endloop
  endfacet
  facet normal 0 0 1
    outer loop
      vertex 6.75 0 5
      vertex 3.98139 -0.00950527 5
      vertex 4.33624 -0.0849304 5
    endloop
  endfacet
  facet normal 0 0 1
    outer loop
      vertex 6.75 0 5
      vertex 3.61861 -0.00950527 5
      vertex 3.98139 -0.00950527 5
    endloop
  endfacet
  facet normal 0 0 1
    outer loop
      vertex 2.06471 -1.73529 5
      vertex 2.03 -5.64 5
      vertex 2.06471 -5.64 5
    endloop
  endfacet
  facet normal -0 0 1
    outer loop
      vertex 0.85 0 5
      vertex 3.61861 -0.00950527 5
      vertex 6.75 0 5
    endloop
  endfacet
  facet normal 0 0 1
    outer loop
      vertex 0.85 0 5
      vertex 3.26377 -0.0849304 5
      vertex 3.61861 -0.00950527 5
    endloop
  endfacet
  facet normal 0 0 1
    outer loop
      vertex 0.85 0 5
      vertex 2.93235 -0.232485 5
      vertex 3.26377 -0.0849304 5
    endloop
  endfacet
  facet normal 0 0 1
    outer loop
      vertex 0.85 0 5
      vertex 2.63886 -0.445719 5
      vertex 2.93235 -0.232485 5
    endloop
  endfacet
  facet normal 0 0 1
    outer loop
      vertex 0.85 0 5
      vertex 2.39612 -0.715313 5
      vertex 2.63886 -0.445719 5
    endloop
  endfacet
  facet normal 0 0 1
    outer loop
      vertex 0.85 0 5
      vertex 2.21473 -1.02949 5
      vertex 2.39612 -0.715313 5
    endloop
  endfacet
  facet normal 0 0 1
    outer loop
      vertex 0.85 0 5
      vertex 2.10263 -1.37451 5
      vertex 2.21473 -1.02949 5
    endloop
  endfacet
  facet normal 0 0 1
    outer loop
      vertex 0.85 -2 5
      vertex 2.10263 -1.37451 5
      vertex 0.85 0 5
    endloop
  endfacet
  facet normal 0 0 1
    outer loop
      vertex 2.10263 -1.37451 5
      vertex 0.85 -2 5
      vertex 2.06471 -1.73529 5
    endloop
  endfacet
  facet normal 0 0 1
    outer loop
      vertex 2.06471 -1.73529 5
      vertex 0.85 -2 5
      vertex 2.03 -5.64 5
    endloop
  endfacet
  facet normal 0 0 1
    outer loop
      vertex 0.26 -2.1 5
      vertex 0.85 -2 5
      vertex 0.26 -2 5
    endloop
  endfacet
  facet normal 0 0 1
    outer loop
      vertex 0.85 -2 5
      vertex 0.26 -2.1 5
      vertex 2.03 -5.64 5
    endloop
  endfacet
  facet normal -0 0 1
    outer loop
      vertex 6.75 -2 5
      vertex 7.34 -2.1 5
      vertex 7.34 -2 5
    endloop
  endfacet
  facet normal 0 0 1
    outer loop
      vertex 7.34 -2.1 5
      vertex 6.75 -2 5
      vertex 5.57 -5.64 5
    endloop
  endfacet
  facet normal 0 0 1
    outer loop
      vertex 5.57 -5.64 5
      vertex 5.53529 -1.73529 5
      vertex 5.53529 -5.64 5
    endloop
  endfacet
  facet normal 1 -0 0
    outer loop
      vertex 6.75 -2 5
      vertex 6.75 0 0
      vertex 6.75 0 5
    endloop
  endfacet
  facet normal 1 0 0
    outer loop
      vertex 6.75 0 0
      vertex 6.75 -2 5
      vertex 6.75 -2 0
    endloop
  endfacet
  facet normal 0 1 -0
    outer loop
      vertex 0.85 -2 0
      vertex 0.26 -2 5
      vertex 0.85 -2 5
    endloop
  endfacet
  facet normal 0 1 0
    outer loop
      vertex 0.26 -2 5
      vertex 0.85 -2 0
      vertex 0.26 -2 0
    endloop
  endfacet
  facet normal 0 1 -0
    outer loop
      vertex 7.34 -2 0
      vertex 6.75 -2 5
      vertex 7.34 -2 5
    endloop
  endfacet
  facet normal 0 1 0
    outer loop
      vertex 6.75 -2 5
      vertex 7.34 -2 0
      vertex 6.75 -2 0
    endloop
  endfacet
  facet normal 0 0 -1
    outer loop
      vertex 2.06471 -5.64 0
      vertex 2.03 -5.64 0
      vertex 2.06471 -1.73529 0
    endloop
  endfacet
  facet normal 0 0 -1
    outer loop
      vertex 7.34 -2.1 0
      vertex 6.75 -2 0
      vertex 7.34 -2 0
    endloop
  endfacet
  facet normal 0 0 -1
    outer loop
      vertex 5.57 -5.64 0
      vertex 6.75 -2 0
      vertex 7.34 -2.1 0
    endloop
  endfacet
  facet normal 0 0 -1
    outer loop
      vertex 5.53529 -1.73529 0
      vertex 6.75 -2 0
      vertex 5.57 -5.64 0
    endloop
  endfacet
  facet normal 0 0 -1
    outer loop
      vertex 5.53529 -1.73529 0
      vertex 5.57 -5.64 0
      vertex 5.53529 -5.64 0
    endloop
  endfacet
  facet normal 0 0 -1
    outer loop
      vertex 5.49737 -1.37451 0
      vertex 6.75 -2 0
      vertex 5.53529 -1.73529 0
    endloop
  endfacet
  facet normal 0 0 -1
    outer loop
      vertex 6.75 -2 0
      vertex 5.49737 -1.37451 0
      vertex 6.75 0 0
    endloop
  endfacet
  facet normal 0 0 -1
    outer loop
      vertex 5.38527 -1.02949 0
      vertex 6.75 0 0
      vertex 5.49737 -1.37451 0
    endloop
  endfacet
  facet normal 0 0 -1
    outer loop
      vertex 5.20388 -0.715313 0
      vertex 6.75 0 0
      vertex 5.38527 -1.02949 0
    endloop
  endfacet
  facet normal 0 0 -1
    outer loop
      vertex 4.96114 -0.445719 0
      vertex 6.75 0 0
      vertex 5.20388 -0.715313 0
    endloop
  endfacet
  facet normal 0 0 -1
    outer loop
      vertex 4.66765 -0.232485 0
      vertex 6.75 0 0
      vertex 4.96114 -0.445719 0
    endloop
  endfacet
  facet normal 0 0 -1
    outer loop
      vertex 4.33624 -0.0849304 0
      vertex 6.75 0 0
      vertex 4.66765 -0.232485 0
    endloop
  endfacet
  facet normal 0 0 -1
    outer loop
      vertex 3.98139 -0.00950527 0
      vertex 6.75 0 0
      vertex 4.33624 -0.0849304 0
    endloop
  endfacet
  facet normal 0 0 -1
    outer loop
      vertex 3.61861 -0.00950527 0
      vertex 6.75 0 0
      vertex 3.98139 -0.00950527 0
    endloop
  endfacet
  facet normal 0 0 -1
    outer loop
      vertex 0.85 -2 0
      vertex 2.06471 -1.73529 0
      vertex 2.03 -5.64 0
    endloop
  endfacet
  facet normal 0 0 -1
    outer loop
      vertex 0.85 -2 0
      vertex 2.10263 -1.37451 0
      vertex 2.06471 -1.73529 0
    endloop
  endfacet
  facet normal 0 0 -1
    outer loop
      vertex 0.85 0 0
      vertex 2.10263 -1.37451 0
      vertex 0.85 -2 0
    endloop
  endfacet
  facet normal 0 0 -1
    outer loop
      vertex 2.10263 -1.37451 0
      vertex 0.85 0 0
      vertex 2.21473 -1.02949 0
    endloop
  endfacet
  facet normal 0 0 -1
    outer loop
      vertex 2.21473 -1.02949 0
      vertex 0.85 0 0
      vertex 2.39612 -0.715313 0
    endloop
  endfacet
  facet normal 0 0 -1
    outer loop
      vertex 3.61861 -0.00950527 0
      vertex 0.85 0 0
      vertex 6.75 0 0
    endloop
  endfacet
  facet normal 0 0 -1
    outer loop
      vertex 3.26377 -0.0849304 0
      vertex 0.85 0 0
      vertex 3.61861 -0.00950527 0
    endloop
  endfacet
  facet normal 0 0 -1
    outer loop
      vertex 2.93235 -0.232485 0
      vertex 0.85 0 0
      vertex 3.26377 -0.0849304 0
    endloop
  endfacet
  facet normal 0 0 -1
    outer loop
      vertex 2.63886 -0.445719 0
      vertex 0.85 0 0
      vertex 2.93235 -0.232485 0
    endloop
  endfacet
  facet normal 0 0 -1
    outer loop
      vertex 2.39612 -0.715313 0
      vertex 0.85 0 0
      vertex 2.63886 -0.445719 0
    endloop
  endfacet
  facet normal 0 0 -1
    outer loop
      vertex 0.26 -2.1 0
      vertex 0.85 -2 0
      vertex 2.03 -5.64 0
    endloop
  endfacet
  facet normal -0 0 -1
    outer loop
      vertex 0.85 -2 0
      vertex 0.26 -2.1 0
      vertex 0.26 -2 0
    endloop
  endfacet
  facet normal 0 1 -0
    outer loop
      vertex 6.75 0 0
      vertex 0.85 0 5
      vertex 6.75 0 5
    endloop
  endfacet
  facet normal 0 1 0
    outer loop
      vertex 0.85 0 5
      vertex 6.75 0 0
      vertex 0.85 0 0
    endloop
  endfacet
  facet normal -1 0 0
    outer loop
      vertex 0.26 -2.1 0
      vertex 0.26 -2 5
      vertex 0.26 -2 0
    endloop
  endfacet
  facet normal -1 -0 0
    outer loop
      vertex 0.26 -2 5
      vertex 0.26 -2.1 0
      vertex 0.26 -2.1 5
    endloop
  endfacet
  facet normal -0.894427 -0.447214 0
    outer loop
      vertex 2.03 -5.64 0
      vertex 0.26 -2.1 5
      vertex 0.26 -2.1 0
    endloop
  endfacet
  facet normal -0.894427 -0.447214 0
    outer loop
      vertex 0.26 -2.1 5
      vertex 2.03 -5.64 0
      vertex 2.03 -5.64 5
    endloop
  endfacet
  facet normal 1 -0 0
    outer loop
      vertex 7.34 -2.1 5
      vertex 7.34 -2 0
      vertex 7.34 -2 5
    endloop
  endfacet
  facet normal 1 0 0
    outer loop
      vertex 7.34 -2 0
      vertex 7.34 -2.1 5
      vertex 7.34 -2.1 0
    endloop
  endfacet
  facet normal 0 -1 0
    outer loop
      vertex 2.03 -5.64 0
      vertex 2.06471 -5.64 5
      vertex 2.03 -5.64 5
    endloop
  endfacet
  facet normal 0 -1 -0
    outer loop
      vertex 2.06471 -5.64 5
      vertex 2.03 -5.64 0
      vertex 2.06471 -5.64 0
    endloop
  endfacet
  facet normal 0 -1 0
    outer loop
      vertex 5.53529 -5.64 0
      vertex 5.57 -5.64 5
      vertex 5.53529 -5.64 5
    endloop
  endfacet
  facet normal 0 -1 -0
    outer loop
      vertex 5.57 -5.64 5
      vertex 5.53529 -5.64 0
      vertex 5.57 -5.64 0
    endloop
  endfacet
  facet normal 0.894427 -0.447214 0
    outer loop
      vertex 5.57 -5.64 5
      vertex 7.34 -2.1 0
      vertex 7.34 -2.1 5
    endloop
  endfacet
  facet normal 0.894427 -0.447214 0
    outer loop
      vertex 7.34 -2.1 0
      vertex 5.57 -5.64 5
      vertex 5.57 -5.64 0
    endloop
  endfacet
  facet normal 1 -0 0
    outer loop
      vertex 2.06471 -5.64 5
      vertex 2.06471 -1.73529 0
      vertex 2.06471 -1.73529 5
    endloop
  endfacet
  facet normal 1 0 0
    outer loop
      vertex 2.06471 -1.73529 0
      vertex 2.06471 -5.64 5
      vertex 2.06471 -5.64 0
    endloop
  endfacet
  facet normal -1 0 0
    outer loop
      vertex 5.53529 -5.64 0
      vertex 5.53529 -1.73529 5
      vertex 5.53529 -1.73529 0
    endloop
  endfacet
  facet normal -1 -0 0
    outer loop
      vertex 5.53529 -1.73529 5
      vertex 5.53529 -5.64 0
      vertex 5.53529 -5.64 5
    endloop
  endfacet
  facet normal 0 -1 0
    outer loop
      vertex 3.61861 -0.00950527 0
      vertex 3.98139 -0.00950527 5
      vertex 3.61861 -0.00950527 5
    endloop
  endfacet
  facet normal 0 -1 -0
    outer loop
      vertex 3.98139 -0.00950527 5
      vertex 3.61861 -0.00950527 0
      vertex 3.98139 -0.00950527 0
    endloop
  endfacet
  facet normal -0.866025 -0.5 0
    outer loop
      vertex 5.38527 -1.02949 0
      vertex 5.20388 -0.715313 5
      vertex 5.20388 -0.715313 0
    endloop
  endfacet
  facet normal -0.866025 -0.5 0
    outer loop
      vertex 5.20388 -0.715313 5
      vertex 5.38527 -1.02949 0
      vertex 5.38527 -1.02949 5
    endloop
  endfacet
  facet normal -0.207911 -0.978148 0
    outer loop
      vertex 3.98139 -0.00950527 0
      vertex 4.33624 -0.0849304 5
      vertex 3.98139 -0.00950527 5
    endloop
  endfacet
  facet normal -0.207911 -0.978148 -0
    outer loop
      vertex 4.33624 -0.0849304 5
      vertex 3.98139 -0.00950527 0
      vertex 4.33624 -0.0849304 0
    endloop
  endfacet
  facet normal -0.951057 -0.309016 0
    outer loop
      vertex 5.49737 -1.37451 0
      vertex 5.38527 -1.02949 5
      vertex 5.38527 -1.02949 0
    endloop
  endfacet
  facet normal -0.951057 -0.309016 0
    outer loop
      vertex 5.38527 -1.02949 5
      vertex 5.49737 -1.37451 0
      vertex 5.49737 -1.37451 5
    endloop
  endfacet
  facet normal -0.994522 -0.104528 0
    outer loop
      vertex 5.53529 -1.73529 0
      vertex 5.49737 -1.37451 5
      vertex 5.49737 -1.37451 0
    endloop
  endfacet
  facet normal -0.994522 -0.104528 0
    outer loop
      vertex 5.49737 -1.37451 5
      vertex 5.53529 -1.73529 0
      vertex 5.53529 -1.73529 5
    endloop
  endfacet
  facet normal 0.866025 -0.5 0
    outer loop
      vertex 2.21473 -1.02949 5
      vertex 2.39612 -0.715313 0
      vertex 2.39612 -0.715313 5
    endloop
  endfacet
  facet normal 0.866025 -0.5 0
    outer loop
      vertex 2.39612 -0.715313 0
      vertex 2.21473 -1.02949 5
      vertex 2.21473 -1.02949 0
    endloop
  endfacet
  facet normal -0.587785 -0.809017 0
    outer loop
      vertex 4.66765 -0.232485 0
      vertex 4.96114 -0.445719 5
      vertex 4.66765 -0.232485 5
    endloop
  endfacet
  facet normal -0.587785 -0.809017 -0
    outer loop
      vertex 4.96114 -0.445719 5
      vertex 4.66765 -0.232485 0
      vertex 4.96114 -0.445719 0
    endloop
  endfacet
  facet normal -0.406738 -0.913545 0
    outer loop
      vertex 4.33624 -0.0849304 0
      vertex 4.66765 -0.232485 5
      vertex 4.33624 -0.0849304 5
    endloop
  endfacet
  facet normal -0.406738 -0.913545 -0
    outer loop
      vertex 4.66765 -0.232485 5
      vertex 4.33624 -0.0849304 0
      vertex 4.66765 -0.232485 0
    endloop
  endfacet
  facet normal 0.207911 -0.978148 0
    outer loop
      vertex 3.26377 -0.0849304 0
      vertex 3.61861 -0.00950527 5
      vertex 3.26377 -0.0849304 5
    endloop
  endfacet
  facet normal 0.207911 -0.978148 0
    outer loop
      vertex 3.61861 -0.00950527 5
      vertex 3.26377 -0.0849304 0
      vertex 3.61861 -0.00950527 0
    endloop
  endfacet
  facet normal 0.743144 -0.669132 0
    outer loop
      vertex 2.39612 -0.715313 5
      vertex 2.63886 -0.445719 0
      vertex 2.63886 -0.445719 5
    endloop
  endfacet
  facet normal 0.743144 -0.669132 0
    outer loop
      vertex 2.63886 -0.445719 0
      vertex 2.39612 -0.715313 5
      vertex 2.39612 -0.715313 0
    endloop
  endfacet
  facet normal 0.951057 -0.309016 0
    outer loop
      vertex 2.10263 -1.37451 5
      vertex 2.21473 -1.02949 0
      vertex 2.21473 -1.02949 5
    endloop
  endfacet
  facet normal 0.951057 -0.309016 0
    outer loop
      vertex 2.21473 -1.02949 0
      vertex 2.10263 -1.37451 5
      vertex 2.10263 -1.37451 0
    endloop
  endfacet
  facet normal 0.994522 -0.104528 0
    outer loop
      vertex 2.06471 -1.73529 5
      vertex 2.10263 -1.37451 0
      vertex 2.10263 -1.37451 5
    endloop
  endfacet
  facet normal 0.994522 -0.104528 0
    outer loop
      vertex 2.10263 -1.37451 0
      vertex 2.06471 -1.73529 5
      vertex 2.06471 -1.73529 0
    endloop
  endfacet
  facet normal -0.743144 -0.669132 0
    outer loop
      vertex 5.20388 -0.715313 0
      vertex 4.96114 -0.445719 5
      vertex 4.96114 -0.445719 0
    endloop
  endfacet
  facet normal -0.743144 -0.669132 0
    outer loop
      vertex 4.96114 -0.445719 5
      vertex 5.20388 -0.715313 0
      vertex 5.20388 -0.715313 5
    endloop
  endfacet
  facet normal 0.406738 -0.913545 0
    outer loop
      vertex 2.93235 -0.232485 0
      vertex 3.26377 -0.0849304 5
      vertex 2.93235 -0.232485 5
    endloop
  endfacet
  facet normal 0.406738 -0.913545 0
    outer loop
      vertex 3.26377 -0.0849304 5
      vertex 2.93235 -0.232485 0
      vertex 3.26377 -0.0849304 0
    endloop
  endfacet
  facet normal 0.587785 -0.809017 0
    outer loop
      vertex 2.63886 -0.445719 0
      vertex 2.93235 -0.232485 5
      vertex 2.63886 -0.445719 5
    endloop
  endfacet
  facet normal 0.587785 -0.809017 0
    outer loop
      vertex 2.93235 -0.232485 5
      vertex 2.63886 -0.445719 0
      vertex 2.93235 -0.232485 0
    endloop
  endfacet
endsolid OpenSCAD_Model
