solid OpenSCAD_Model
  facet normal 1 -0 0
    outer loop
      vertex 3.89062 -19.9719 31
      vertex 3.89062 -16.3406 15
      vertex 3.89062 -16.3406 31
    endloop
  endfacet
  facet normal 1 0 0
    outer loop
      vertex 3.89062 -16.3406 15
      vertex 3.89062 -19.9719 31
      vertex 3.89062 -19.9719 15
    endloop
  endfacet
  facet normal 0.707107 -0.707106 0
    outer loop
      vertex 3.89062 -16.3406 31
      vertex 4.66875 -15.5625 15
      vertex 4.66875 -15.5625 31
    endloop
  endfacet
  facet normal 0.707107 -0.707106 0
    outer loop
      vertex 4.66875 -15.5625 15
      vertex 3.89062 -16.3406 31
      vertex 3.89062 -16.3406 15
    endloop
  endfacet
  facet normal 0 -1 0
    outer loop
      vertex 4.66875 -15.5625 15
      vertex 7.52187 -15.5625 31
      vertex 4.66875 -15.5625 31
    endloop
  endfacet
  facet normal 0 -1 -0
    outer loop
      vertex 7.52187 -15.5625 31
      vertex 4.66875 -15.5625 15
      vertex 7.52187 -15.5625 15
    endloop
  endfacet
  facet normal -1 0 0
    outer loop
      vertex 7.52187 -16.6 15
      vertex 7.52187 -15.5625 31
      vertex 7.52187 -15.5625 15
    endloop
  endfacet
  facet normal -1 -0 0
    outer loop
      vertex 7.52187 -15.5625 31
      vertex 7.52187 -16.6 15
      vertex 7.52187 -16.6 31
    endloop
  endfacet
  facet normal 0 -1 0
    outer loop
      vertex 7.52187 -16.6 15
      vertex 9.59688 -16.6 31
      vertex 7.52187 -16.6 31
    endloop
  endfacet
  facet normal 0 -1 -0
    outer loop
      vertex 9.59688 -16.6 31
      vertex 7.52187 -16.6 15
      vertex 9.59688 -16.6 15
    endloop
  endfacet
  facet normal 1 -0 0
    outer loop
      vertex 9.59688 -16.6 31
      vertex 9.59688 -13.4875 15
      vertex 9.59688 -13.4875 31
    endloop
  endfacet
  facet normal 1 0 0
    outer loop
      vertex 9.59688 -13.4875 15
      vertex 9.59688 -16.6 31
      vertex 9.59688 -16.6 15
    endloop
  endfacet
  facet normal 0.857493 0.514496 0
    outer loop
      vertex 9.59688 -13.4875 31
      vertex 8.04062 -10.8938 15
      vertex 8.04062 -10.8938 31
    endloop
  endfacet
  facet normal 0.857493 0.514496 0
    outer loop
      vertex 8.04062 -10.8938 15
      vertex 9.59688 -13.4875 31
      vertex 9.59688 -13.4875 15
    endloop
  endfacet
  facet normal 0.633238 0.773957 -0
    outer loop
      vertex 8.04062 -10.8938 15
      vertex 5.1875 -8.55937 31
      vertex 8.04062 -10.8938 31
    endloop
  endfacet
  facet normal 0.633238 0.773957 0
    outer loop
      vertex 5.1875 -8.55937 31
      vertex 8.04062 -10.8938 15
      vertex 5.1875 -8.55937 15
    endloop
  endfacet
  facet normal 0 1 -0
    outer loop
      vertex 5.1875 -8.55937 15
      vertex -5.1875 -8.55937 31
      vertex 5.1875 -8.55937 31
    endloop
  endfacet
  facet normal 0 1 0
    outer loop
      vertex -5.1875 -8.55937 31
      vertex 5.1875 -8.55937 15
      vertex -5.1875 -8.55937 15
    endloop
  endfacet
  facet normal -0.633238 0.773957 0
    outer loop
      vertex -5.1875 -8.55937 15
      vertex -8.04062 -10.8938 31
      vertex -5.1875 -8.55937 31
    endloop
  endfacet
  facet normal -0.633238 0.773957 0
    outer loop
      vertex -8.04062 -10.8938 31
      vertex -5.1875 -8.55937 15
      vertex -8.04062 -10.8938 15
    endloop
  endfacet
  facet normal -0.857493 0.514496 0
    outer loop
      vertex -9.59688 -13.4875 15
      vertex -8.04062 -10.8938 31
      vertex -8.04062 -10.8938 15
    endloop
  endfacet
  facet normal -0.857493 0.514496 0
    outer loop
      vertex -8.04062 -10.8938 31
      vertex -9.59688 -13.4875 15
      vertex -9.59688 -13.4875 31
    endloop
  endfacet
  facet normal -1 0 0
    outer loop
      vertex -9.59688 -16.6 15
      vertex -9.59688 -13.4875 31
      vertex -9.59688 -13.4875 15
    endloop
  endfacet
  facet normal -1 -0 0
    outer loop
      vertex -9.59688 -13.4875 31
      vertex -9.59688 -16.6 15
      vertex -9.59688 -16.6 31
    endloop
  endfacet
  facet normal 0 -1 0
    outer loop
      vertex -9.59688 -16.6 15
      vertex -7.52187 -16.6 31
      vertex -9.59688 -16.6 31
    endloop
  endfacet
  facet normal 0 -1 -0
    outer loop
      vertex -7.52187 -16.6 31
      vertex -9.59688 -16.6 15
      vertex -7.52187 -16.6 15
    endloop
  endfacet
  facet normal 1 -0 0
    outer loop
      vertex -7.52187 -16.6 31
      vertex -7.52187 -15.5625 15
      vertex -7.52187 -15.5625 31
    endloop
  endfacet
  facet normal 1 0 0
    outer loop
      vertex -7.52187 -15.5625 15
      vertex -7.52187 -16.6 31
      vertex -7.52187 -16.6 15
    endloop
  endfacet
  facet normal 0 -1 0
    outer loop
      vertex -7.52187 -15.5625 15
      vertex -4.66875 -15.5625 31
      vertex -7.52187 -15.5625 31
    endloop
  endfacet
  facet normal 0 -1 -0
    outer loop
      vertex -4.66875 -15.5625 31
      vertex -7.52187 -15.5625 15
      vertex -4.66875 -15.5625 15
    endloop
  endfacet
  facet normal -0.707107 -0.707106 0
    outer loop
      vertex -3.89062 -16.3406 15
      vertex -4.66875 -15.5625 31
      vertex -4.66875 -15.5625 15
    endloop
  endfacet
  facet normal -0.707107 -0.707106 0
    outer loop
      vertex -4.66875 -15.5625 31
      vertex -3.89062 -16.3406 15
      vertex -3.89062 -16.3406 31
    endloop
  endfacet
  facet normal -1 0 0
    outer loop
      vertex -3.89062 -19.9719 15
      vertex -3.89062 -16.3406 31
      vertex -3.89062 -16.3406 15
    endloop
  endfacet
  facet normal -1 -0 0
    outer loop
      vertex -3.89062 -16.3406 31
      vertex -3.89062 -19.9719 15
      vertex -3.89062 -19.9719 31
    endloop
  endfacet
  facet normal -0.707107 0.707106 0
    outer loop
      vertex -5.06056 -21.1418 15
      vertex -3.89062 -19.9719 31
      vertex -3.89062 -19.9719 15
    endloop
  endfacet
  facet normal -0.707107 0.707106 0
    outer loop
      vertex -3.89062 -19.9719 31
      vertex -5.06056 -21.1418 15
      vertex -5.06056 -21.1418 31
    endloop
  endfacet
  facet normal 0.707107 0.707106 0
    outer loop
      vertex 5.06056 -21.1418 31
      vertex 3.89062 -19.9719 15
      vertex 3.89062 -19.9719 31
    endloop
  endfacet
  facet normal 0.707107 0.707106 0
    outer loop
      vertex 3.89062 -19.9719 15
      vertex 5.06056 -21.1418 31
      vertex 5.06056 -21.1418 15
    endloop
  endfacet
  facet normal 0 1 -0
    outer loop
      vertex 19.9719 3.89062 15
      vertex 16.3406 3.89062 31
      vertex 19.9719 3.89062 31
    endloop
  endfacet
  facet normal 0 1 0
    outer loop
      vertex 16.3406 3.89062 31
      vertex 19.9719 3.89062 15
      vertex 16.3406 3.89062 15
    endloop
  endfacet
  facet normal 0.707106 0.707107 -0
    outer loop
      vertex 16.3406 3.89062 15
      vertex 15.5625 4.66875 31
      vertex 16.3406 3.89062 31
    endloop
  endfacet
  facet normal 0.707106 0.707107 0
    outer loop
      vertex 15.5625 4.66875 31
      vertex 16.3406 3.89062 15
      vertex 15.5625 4.66875 15
    endloop
  endfacet
  facet normal 1 -0 0
    outer loop
      vertex 15.5625 4.66875 31
      vertex 15.5625 7.52187 15
      vertex 15.5625 7.52187 31
    endloop
  endfacet
  facet normal 1 0 0
    outer loop
      vertex 15.5625 7.52187 15
      vertex 15.5625 4.66875 31
      vertex 15.5625 4.66875 15
    endloop
  endfacet
  facet normal 0 -1 0
    outer loop
      vertex 15.5625 7.52187 15
      vertex 16.6 7.52187 31
      vertex 15.5625 7.52187 31
    endloop
  endfacet
  facet normal 0 -1 -0
    outer loop
      vertex 16.6 7.52187 31
      vertex 15.5625 7.52187 15
      vertex 16.6 7.52187 15
    endloop
  endfacet
  facet normal 1 -0 0
    outer loop
      vertex 16.6 7.52187 31
      vertex 16.6 9.59687 15
      vertex 16.6 9.59687 31
    endloop
  endfacet
  facet normal 1 0 0
    outer loop
      vertex 16.6 9.59687 15
      vertex 16.6 7.52187 31
      vertex 16.6 7.52187 15
    endloop
  endfacet
  facet normal 0 1 -0
    outer loop
      vertex 16.6 9.59687 15
      vertex 13.4875 9.59687 31
      vertex 16.6 9.59687 31
    endloop
  endfacet
  facet normal 0 1 0
    outer loop
      vertex 13.4875 9.59687 31
      vertex 16.6 9.59687 15
      vertex 13.4875 9.59687 15
    endloop
  endfacet
  facet normal -0.514496 0.857493 0
    outer loop
      vertex 13.4875 9.59687 15
      vertex 10.8938 8.04062 31
      vertex 13.4875 9.59687 31
    endloop
  endfacet
  facet normal -0.514496 0.857493 0
    outer loop
      vertex 10.8938 8.04062 31
      vertex 13.4875 9.59687 15
      vertex 10.8938 8.04062 15
    endloop
  endfacet
  facet normal -0.773957 0.633238 0
    outer loop
      vertex 8.55937 5.1875 15
      vertex 10.8938 8.04062 31
      vertex 10.8938 8.04062 15
    endloop
  endfacet
  facet normal -0.773957 0.633238 0
    outer loop
      vertex 10.8938 8.04062 31
      vertex 8.55937 5.1875 15
      vertex 8.55937 5.1875 31
    endloop
  endfacet
  facet normal -1 9.19204e-08 0
    outer loop
      vertex 8.55937 -5.1875 15
      vertex 8.55937 5.1875 31
      vertex 8.55937 5.1875 15
    endloop
  endfacet
  facet normal -1 9.19204e-08 0
    outer loop
      vertex 8.55937 5.1875 31
      vertex 8.55937 -5.1875 15
      vertex 8.55937 -5.1875 31
    endloop
  endfacet
  facet normal -0.773957 -0.633238 0
    outer loop
      vertex 10.8937 -8.04062 15
      vertex 8.55937 -5.1875 31
      vertex 8.55937 -5.1875 15
    endloop
  endfacet
  facet normal -0.773957 -0.633238 0
    outer loop
      vertex 8.55937 -5.1875 31
      vertex 10.8937 -8.04062 15
      vertex 10.8937 -8.04062 31
    endloop
  endfacet
  facet normal -0.514496 -0.857493 0
    outer loop
      vertex 10.8937 -8.04062 15
      vertex 13.4875 -9.59688 31
      vertex 10.8937 -8.04062 31
    endloop
  endfacet
  facet normal -0.514496 -0.857493 -0
    outer loop
      vertex 13.4875 -9.59688 31
      vertex 10.8937 -8.04062 15
      vertex 13.4875 -9.59688 15
    endloop
  endfacet
  facet normal 0 -1 0
    outer loop
      vertex 13.4875 -9.59688 15
      vertex 16.6 -9.59688 31
      vertex 13.4875 -9.59688 31
    endloop
  endfacet
  facet normal 0 -1 -0
    outer loop
      vertex 16.6 -9.59688 31
      vertex 13.4875 -9.59688 15
      vertex 16.6 -9.59688 15
    endloop
  endfacet
  facet normal 1 -0 0
    outer loop
      vertex 16.6 -9.59688 31
      vertex 16.6 -7.52187 15
      vertex 16.6 -7.52187 31
    endloop
  endfacet
  facet normal 1 0 0
    outer loop
      vertex 16.6 -7.52187 15
      vertex 16.6 -9.59688 31
      vertex 16.6 -9.59688 15
    endloop
  endfacet
  facet normal 0 1 -0
    outer loop
      vertex 16.6 -7.52187 15
      vertex 15.5625 -7.52187 31
      vertex 16.6 -7.52187 31
    endloop
  endfacet
  facet normal 0 1 0
    outer loop
      vertex 15.5625 -7.52187 31
      vertex 16.6 -7.52187 15
      vertex 15.5625 -7.52187 15
    endloop
  endfacet
  facet normal 1 -0 0
    outer loop
      vertex 15.5625 -7.52187 31
      vertex 15.5625 -4.66875 15
      vertex 15.5625 -4.66875 31
    endloop
  endfacet
  facet normal 1 0 0
    outer loop
      vertex 15.5625 -4.66875 15
      vertex 15.5625 -7.52187 31
      vertex 15.5625 -7.52187 15
    endloop
  endfacet
  facet normal 0.707106 -0.707108 0
    outer loop
      vertex 15.5625 -4.66875 15
      vertex 16.3406 -3.89062 31
      vertex 15.5625 -4.66875 31
    endloop
  endfacet
  facet normal 0.707106 -0.707108 0
    outer loop
      vertex 16.3406 -3.89062 31
      vertex 15.5625 -4.66875 15
      vertex 16.3406 -3.89062 15
    endloop
  endfacet
  facet normal 0 -1 0
    outer loop
      vertex 16.3406 -3.89062 15
      vertex 19.9719 -3.89062 31
      vertex 16.3406 -3.89062 31
    endloop
  endfacet
  facet normal 0 -1 -0
    outer loop
      vertex 19.9719 -3.89062 31
      vertex 16.3406 -3.89062 15
      vertex 19.9719 -3.89062 15
    endloop
  endfacet
  facet normal -0.707106 -0.707107 0
    outer loop
      vertex 19.9719 -3.89062 15
      vertex 21.165 -5.08375 31
      vertex 19.9719 -3.89062 31
    endloop
  endfacet
  facet normal -0.707106 -0.707107 -0
    outer loop
      vertex 21.165 -5.08375 31
      vertex 19.9719 -3.89062 15
      vertex 21.165 -5.08375 15
    endloop
  endfacet
  facet normal -0.707106 0.707107 0
    outer loop
      vertex 21.165 5.08375 15
      vertex 19.9719 3.89062 31
      vertex 21.165 5.08375 31
    endloop
  endfacet
  facet normal -0.707106 0.707107 0
    outer loop
      vertex 19.9719 3.89062 31
      vertex 21.165 5.08375 15
      vertex 19.9719 3.89062 15
    endloop
  endfacet
  facet normal -1 0 0
    outer loop
      vertex -3.89062 16.3406 15
      vertex -3.89062 19.9719 31
      vertex -3.89062 19.9719 15
    endloop
  endfacet
  facet normal -1 -0 0
    outer loop
      vertex -3.89062 19.9719 31
      vertex -3.89062 16.3406 15
      vertex -3.89062 16.3406 31
    endloop
  endfacet
  facet normal -0.707107 0.707106 0
    outer loop
      vertex -4.66875 15.5625 15
      vertex -3.89062 16.3406 31
      vertex -3.89062 16.3406 15
    endloop
  endfacet
  facet normal -0.707107 0.707106 0
    outer loop
      vertex -3.89062 16.3406 31
      vertex -4.66875 15.5625 15
      vertex -4.66875 15.5625 31
    endloop
  endfacet
  facet normal 0 1 -0
    outer loop
      vertex -4.66875 15.5625 15
      vertex -7.52187 15.5625 31
      vertex -4.66875 15.5625 31
    endloop
  endfacet
  facet normal 0 1 0
    outer loop
      vertex -7.52187 15.5625 31
      vertex -4.66875 15.5625 15
      vertex -7.52187 15.5625 15
    endloop
  endfacet
  facet normal 1 -0 0
    outer loop
      vertex -7.52187 15.5625 31
      vertex -7.52187 16.6 15
      vertex -7.52187 16.6 31
    endloop
  endfacet
  facet normal 1 0 0
    outer loop
      vertex -7.52187 16.6 15
      vertex -7.52187 15.5625 31
      vertex -7.52187 15.5625 15
    endloop
  endfacet
  facet normal 0 1 -0
    outer loop
      vertex -7.52187 16.6 15
      vertex -9.59687 16.6 31
      vertex -7.52187 16.6 31
    endloop
  endfacet
  facet normal 0 1 0
    outer loop
      vertex -9.59687 16.6 31
      vertex -7.52187 16.6 15
      vertex -9.59687 16.6 15
    endloop
  endfacet
  facet normal -1 0 0
    outer loop
      vertex -9.59687 13.4875 15
      vertex -9.59687 16.6 31
      vertex -9.59687 16.6 15
    endloop
  endfacet
  facet normal -1 -0 0
    outer loop
      vertex -9.59687 16.6 31
      vertex -9.59687 13.4875 15
      vertex -9.59687 13.4875 31
    endloop
  endfacet
  facet normal -0.857493 -0.514496 0
    outer loop
      vertex -8.04062 10.8938 15
      vertex -9.59687 13.4875 31
      vertex -9.59687 13.4875 15
    endloop
  endfacet
  facet normal -0.857493 -0.514496 0
    outer loop
      vertex -9.59687 13.4875 31
      vertex -8.04062 10.8938 15
      vertex -8.04062 10.8938 31
    endloop
  endfacet
  facet normal -0.633238 -0.773957 0
    outer loop
      vertex -8.04062 10.8938 15
      vertex -5.1875 8.55937 31
      vertex -8.04062 10.8938 31
    endloop
  endfacet
  facet normal -0.633238 -0.773957 -0
    outer loop
      vertex -5.1875 8.55937 31
      vertex -8.04062 10.8938 15
      vertex -5.1875 8.55937 15
    endloop
  endfacet
  facet normal 0 -1 0
    outer loop
      vertex -5.1875 8.55937 15
      vertex 5.1875 8.55937 31
      vertex -5.1875 8.55937 31
    endloop
  endfacet
  facet normal 0 -1 -0
    outer loop
      vertex 5.1875 8.55937 31
      vertex -5.1875 8.55937 15
      vertex 5.1875 8.55937 15
    endloop
  endfacet
  facet normal 0.633238 -0.773957 0
    outer loop
      vertex 5.1875 8.55937 15
      vertex 8.04062 10.8937 31
      vertex 5.1875 8.55937 31
    endloop
  endfacet
  facet normal 0.633238 -0.773957 0
    outer loop
      vertex 8.04062 10.8937 31
      vertex 5.1875 8.55937 15
      vertex 8.04062 10.8937 15
    endloop
  endfacet
  facet normal 0.857493 -0.514496 0
    outer loop
      vertex 8.04062 10.8937 31
      vertex 9.59688 13.4875 15
      vertex 9.59688 13.4875 31
    endloop
  endfacet
  facet normal 0.857493 -0.514496 0
    outer loop
      vertex 9.59688 13.4875 15
      vertex 8.04062 10.8937 31
      vertex 8.04062 10.8937 15
    endloop
  endfacet
  facet normal 1 -0 0
    outer loop
      vertex 9.59688 13.4875 31
      vertex 9.59688 16.6 15
      vertex 9.59688 16.6 31
    endloop
  endfacet
  facet normal 1 0 0
    outer loop
      vertex 9.59688 16.6 15
      vertex 9.59688 13.4875 31
      vertex 9.59688 13.4875 15
    endloop
  endfacet
  facet normal 9.19204e-07 1 -0
    outer loop
      vertex 9.59688 16.6 15
      vertex 7.52187 16.6 31
      vertex 9.59688 16.6 31
    endloop
  endfacet
  facet normal 9.19204e-07 1 0
    outer loop
      vertex 7.52187 16.6 31
      vertex 9.59688 16.6 15
      vertex 7.52187 16.6 15
    endloop
  endfacet
  facet normal -1 0 0
    outer loop
      vertex 7.52187 15.5625 15
      vertex 7.52187 16.6 31
      vertex 7.52187 16.6 15
    endloop
  endfacet
  facet normal -1 -0 0
    outer loop
      vertex 7.52187 16.6 31
      vertex 7.52187 15.5625 15
      vertex 7.52187 15.5625 31
    endloop
  endfacet
  facet normal 0 1 -0
    outer loop
      vertex 7.52187 15.5625 15
      vertex 4.66875 15.5625 31
      vertex 7.52187 15.5625 31
    endloop
  endfacet
  facet normal 0 1 0
    outer loop
      vertex 4.66875 15.5625 31
      vertex 7.52187 15.5625 15
      vertex 4.66875 15.5625 15
    endloop
  endfacet
  facet normal 0.707107 0.707106 0
    outer loop
      vertex 4.66875 15.5625 31
      vertex 3.89062 16.3406 15
      vertex 3.89062 16.3406 31
    endloop
  endfacet
  facet normal 0.707107 0.707106 0
    outer loop
      vertex 3.89062 16.3406 15
      vertex 4.66875 15.5625 31
      vertex 4.66875 15.5625 15
    endloop
  endfacet
  facet normal 1 -0 0
    outer loop
      vertex 3.89062 16.3406 31
      vertex 3.89062 19.9719 15
      vertex 3.89062 19.9719 31
    endloop
  endfacet
  facet normal 1 0 0
    outer loop
      vertex 3.89062 19.9719 15
      vertex 3.89062 16.3406 31
      vertex 3.89062 16.3406 15
    endloop
  endfacet
  facet normal 0.707107 -0.707106 0
    outer loop
      vertex 3.89062 19.9719 31
      vertex 5.06056 21.1418 15
      vertex 5.06056 21.1418 31
    endloop
  endfacet
  facet normal 0.707107 -0.707106 0
    outer loop
      vertex 5.06056 21.1418 15
      vertex 3.89062 19.9719 31
      vertex 3.89062 19.9719 15
    endloop
  endfacet
  facet normal -0.707107 -0.707106 0
    outer loop
      vertex -3.89062 19.9719 15
      vertex -5.06056 21.1418 31
      vertex -5.06056 21.1418 15
    endloop
  endfacet
  facet normal -0.707107 -0.707106 0
    outer loop
      vertex -5.06056 21.1418 31
      vertex -3.89062 19.9719 15
      vertex -3.89062 19.9719 31
    endloop
  endfacet
  facet normal 0 -1 0
    outer loop
      vertex -19.9719 -3.89062 15
      vertex -16.3406 -3.89062 31
      vertex -19.9719 -3.89062 31
    endloop
  endfacet
  facet normal 0 -1 -0
    outer loop
      vertex -16.3406 -3.89062 31
      vertex -19.9719 -3.89062 15
      vertex -16.3406 -3.89062 15
    endloop
  endfacet
  facet normal -0.707106 -0.707107 0
    outer loop
      vertex -16.3406 -3.89062 15
      vertex -15.5625 -4.66875 31
      vertex -16.3406 -3.89062 31
    endloop
  endfacet
  facet normal -0.707106 -0.707107 -0
    outer loop
      vertex -15.5625 -4.66875 31
      vertex -16.3406 -3.89062 15
      vertex -15.5625 -4.66875 15
    endloop
  endfacet
  facet normal -1 0 0
    outer loop
      vertex -15.5625 -7.52187 15
      vertex -15.5625 -4.66875 31
      vertex -15.5625 -4.66875 15
    endloop
  endfacet
  facet normal -1 -0 0
    outer loop
      vertex -15.5625 -4.66875 31
      vertex -15.5625 -7.52187 15
      vertex -15.5625 -7.52187 31
    endloop
  endfacet
  facet normal 0 1 -0
    outer loop
      vertex -15.5625 -7.52187 15
      vertex -16.6 -7.52187 31
      vertex -15.5625 -7.52187 31
    endloop
  endfacet
  facet normal 0 1 0
    outer loop
      vertex -16.6 -7.52187 31
      vertex -15.5625 -7.52187 15
      vertex -16.6 -7.52187 15
    endloop
  endfacet
  facet normal -1 0 0
    outer loop
      vertex -16.6 -9.59687 15
      vertex -16.6 -7.52187 31
      vertex -16.6 -7.52187 15
    endloop
  endfacet
  facet normal -1 -0 0
    outer loop
      vertex -16.6 -7.52187 31
      vertex -16.6 -9.59687 15
      vertex -16.6 -9.59687 31
    endloop
  endfacet
  facet normal 0 -1 0
    outer loop
      vertex -16.6 -9.59687 15
      vertex -13.4875 -9.59687 31
      vertex -16.6 -9.59687 31
    endloop
  endfacet
  facet normal 0 -1 -0
    outer loop
      vertex -13.4875 -9.59687 31
      vertex -16.6 -9.59687 15
      vertex -13.4875 -9.59687 15
    endloop
  endfacet
  facet normal 0.514496 -0.857493 0
    outer loop
      vertex -13.4875 -9.59687 15
      vertex -10.8938 -8.04062 31
      vertex -13.4875 -9.59687 31
    endloop
  endfacet
  facet normal 0.514496 -0.857493 0
    outer loop
      vertex -10.8938 -8.04062 31
      vertex -13.4875 -9.59687 15
      vertex -10.8938 -8.04062 15
    endloop
  endfacet
  facet normal 0.773957 -0.633238 0
    outer loop
      vertex -10.8938 -8.04062 31
      vertex -8.55937 -5.1875 15
      vertex -8.55937 -5.1875 31
    endloop
  endfacet
  facet normal 0.773957 -0.633238 0
    outer loop
      vertex -8.55937 -5.1875 15
      vertex -10.8938 -8.04062 31
      vertex -10.8938 -8.04062 15
    endloop
  endfacet
  facet normal 1 -9.19204e-08 0
    outer loop
      vertex -8.55937 -5.1875 31
      vertex -8.55937 5.1875 15
      vertex -8.55937 5.1875 31
    endloop
  endfacet
  facet normal 1 -9.19204e-08 0
    outer loop
      vertex -8.55937 5.1875 15
      vertex -8.55937 -5.1875 31
      vertex -8.55937 -5.1875 15
    endloop
  endfacet
  facet normal 0.773957 0.633238 0
    outer loop
      vertex -8.55937 5.1875 31
      vertex -10.8937 8.04062 15
      vertex -10.8937 8.04062 31
    endloop
  endfacet
  facet normal 0.773957 0.633238 0
    outer loop
      vertex -10.8937 8.04062 15
      vertex -8.55937 5.1875 31
      vertex -8.55937 5.1875 15
    endloop
  endfacet
  facet normal 0.514496 0.857493 -0
    outer loop
      vertex -10.8937 8.04062 15
      vertex -13.4875 9.59688 31
      vertex -10.8937 8.04062 31
    endloop
  endfacet
  facet normal 0.514496 0.857493 0
    outer loop
      vertex -13.4875 9.59688 31
      vertex -10.8937 8.04062 15
      vertex -13.4875 9.59688 15
    endloop
  endfacet
  facet normal 0 1 -0
    outer loop
      vertex -13.4875 9.59688 15
      vertex -16.6 9.59688 31
      vertex -13.4875 9.59688 31
    endloop
  endfacet
  facet normal 0 1 0
    outer loop
      vertex -16.6 9.59688 31
      vertex -13.4875 9.59688 15
      vertex -16.6 9.59688 15
    endloop
  endfacet
  facet normal -1 0 0
    outer loop
      vertex -16.6 7.52187 15
      vertex -16.6 9.59688 31
      vertex -16.6 9.59688 15
    endloop
  endfacet
  facet normal -1 -0 0
    outer loop
      vertex -16.6 9.59688 31
      vertex -16.6 7.52187 15
      vertex -16.6 7.52187 31
    endloop
  endfacet
  facet normal 0 -1 0
    outer loop
      vertex -16.6 7.52187 15
      vertex -15.5625 7.52187 31
      vertex -16.6 7.52187 31
    endloop
  endfacet
  facet normal 0 -1 -0
    outer loop
      vertex -15.5625 7.52187 31
      vertex -16.6 7.52187 15
      vertex -15.5625 7.52187 15
    endloop
  endfacet
  facet normal -1 0 0
    outer loop
      vertex -15.5625 4.66875 15
      vertex -15.5625 7.52187 31
      vertex -15.5625 7.52187 15
    endloop
  endfacet
  facet normal -1 -0 0
    outer loop
      vertex -15.5625 7.52187 31
      vertex -15.5625 4.66875 15
      vertex -15.5625 4.66875 31
    endloop
  endfacet
  facet normal -0.707106 0.707108 0
    outer loop
      vertex -15.5625 4.66875 15
      vertex -16.3406 3.89062 31
      vertex -15.5625 4.66875 31
    endloop
  endfacet
  facet normal -0.707106 0.707108 0
    outer loop
      vertex -16.3406 3.89062 31
      vertex -15.5625 4.66875 15
      vertex -16.3406 3.89062 15
    endloop
  endfacet
  facet normal 0 1 -0
    outer loop
      vertex -16.3406 3.89062 15
      vertex -19.9719 3.89062 31
      vertex -16.3406 3.89062 31
    endloop
  endfacet
  facet normal 0 1 0
    outer loop
      vertex -19.9719 3.89062 31
      vertex -16.3406 3.89062 15
      vertex -19.9719 3.89062 15
    endloop
  endfacet
  facet normal 0.707106 0.707107 -0
    outer loop
      vertex -19.9719 3.89062 15
      vertex -21.165 5.08375 31
      vertex -19.9719 3.89062 31
    endloop
  endfacet
  facet normal 0.707106 0.707107 0
    outer loop
      vertex -21.165 5.08375 31
      vertex -19.9719 3.89062 15
      vertex -21.165 5.08375 15
    endloop
  endfacet
  facet normal 0.707106 -0.707107 0
    outer loop
      vertex -21.165 -5.08375 15
      vertex -19.9719 -3.89062 31
      vertex -21.165 -5.08375 31
    endloop
  endfacet
  facet normal 0.707106 -0.707107 0
    outer loop
      vertex -19.9719 -3.89062 31
      vertex -21.165 -5.08375 15
      vertex -19.9719 -3.89062 15
    endloop
  endfacet
  facet normal -0.406737 -0.913545 0
    outer loop
      vertex 18.2401 20.9578 15
      vertex 19.0485 20.5979 31
      vertex 18.2401 20.9578 31
    endloop
  endfacet
  facet normal -0.406737 -0.913545 -0
    outer loop
      vertex 19.0485 20.5979 31
      vertex 18.2401 20.9578 15
      vertex 19.0485 20.5979 15
    endloop
  endfacet
  facet normal 0 -1 0
    outer loop
      vertex -17.3745 21.1418 15
      vertex -5.06056 21.1418 31
      vertex -17.3745 21.1418 31
    endloop
  endfacet
  facet normal 0 -1 -0
    outer loop
      vertex -5.06056 21.1418 31
      vertex -17.3745 21.1418 15
      vertex -5.06056 21.1418 15
    endloop
  endfacet
  facet normal 0 -1 0
    outer loop
      vertex 5.06056 21.1418 15
      vertex 16.4895 21.1418 31
      vertex 5.06056 21.1418 31
    endloop
  endfacet
  facet normal 0 -1 -0
    outer loop
      vertex 16.4895 21.1418 31
      vertex 5.06056 21.1418 15
      vertex 16.4895 21.1418 15
    endloop
  endfacet
  facet normal 0 1 -0
    outer loop
      vertex -16.4895 -21.1418 15
      vertex -17.3745 -21.1418 31
      vertex -16.4895 -21.1418 31
    endloop
  endfacet
  facet normal 0 1 0
    outer loop
      vertex -17.3745 -21.1418 31
      vertex -16.4895 -21.1418 15
      vertex -17.3745 -21.1418 15
    endloop
  endfacet
  facet normal 0.994522 0.10453 0
    outer loop
      vertex -21.0725 -17.8121 31
      vertex -21.165 -16.932 15
      vertex -21.165 -16.932 31
    endloop
  endfacet
  facet normal 0.994522 0.10453 0
    outer loop
      vertex -21.165 -16.932 15
      vertex -21.0725 -17.8121 31
      vertex -21.0725 -17.8121 15
    endloop
  endfacet
  facet normal -0.994522 -0.10453 0
    outer loop
      vertex 21.165 16.932 15
      vertex 21.0725 17.8121 31
      vertex 21.0725 17.8121 15
    endloop
  endfacet
  facet normal -0.994522 -0.10453 0
    outer loop
      vertex 21.0725 17.8121 31
      vertex 21.165 16.932 15
      vertex 21.165 16.932 31
    endloop
  endfacet
  facet normal -1 0 0
    outer loop
      vertex 21.165 -16.932 15
      vertex 21.165 -5.08375 31
      vertex 21.165 -5.08375 15
    endloop
  endfacet
  facet normal -1 -0 0
    outer loop
      vertex 21.165 -5.08375 31
      vertex 21.165 -16.932 15
      vertex 21.165 -16.932 31
    endloop
  endfacet
  facet normal -1 0 0
    outer loop
      vertex 21.165 5.08375 15
      vertex 21.165 16.932 31
      vertex 21.165 16.932 15
    endloop
  endfacet
  facet normal -1 -0 0
    outer loop
      vertex 21.165 16.932 31
      vertex 21.165 5.08375 15
      vertex 21.165 5.08375 31
    endloop
  endfacet
  facet normal -0.994522 0.10453 0
    outer loop
      vertex 21.0725 -17.8121 15
      vertex 21.165 -16.932 31
      vertex 21.165 -16.932 15
    endloop
  endfacet
  facet normal -0.994522 0.10453 0
    outer loop
      vertex 21.165 -16.932 31
      vertex 21.0725 -17.8121 15
      vertex 21.0725 -17.8121 31
    endloop
  endfacet
  facet normal 0.207912 -0.978148 0
    outer loop
      vertex -18.2401 20.9578 15
      vertex -17.3745 21.1418 31
      vertex -18.2401 20.9578 31
    endloop
  endfacet
  facet normal 0.207912 -0.978148 0
    outer loop
      vertex -17.3745 21.1418 31
      vertex -18.2401 20.9578 15
      vertex -17.3745 21.1418 15
    endloop
  endfacet
  facet normal -0.207912 0.978148 0
    outer loop
      vertex 18.2401 -20.9578 15
      vertex 17.3745 -21.1418 31
      vertex 18.2401 -20.9578 31
    endloop
  endfacet
  facet normal -0.207912 0.978148 0
    outer loop
      vertex 17.3745 -21.1418 31
      vertex 18.2401 -20.9578 15
      vertex 17.3745 -21.1418 15
    endloop
  endfacet
  facet normal -0.406737 0.913545 0
    outer loop
      vertex 19.0485 -20.5979 15
      vertex 18.2401 -20.9578 31
      vertex 19.0485 -20.5979 31
    endloop
  endfacet
  facet normal -0.406737 0.913545 0
    outer loop
      vertex 18.2401 -20.9578 31
      vertex 19.0485 -20.5979 15
      vertex 18.2401 -20.9578 15
    endloop
  endfacet
  facet normal 0.207912 0.978148 -0
    outer loop
      vertex -17.3745 -21.1418 15
      vertex -18.2401 -20.9578 31
      vertex -17.3745 -21.1418 31
    endloop
  endfacet
  facet normal 0.207912 0.978148 0
    outer loop
      vertex -18.2401 -20.9578 31
      vertex -17.3745 -21.1418 15
      vertex -18.2401 -20.9578 15
    endloop
  endfacet
  facet normal 0.743144 -0.669132 0
    outer loop
      vertex -20.3566 19.4201 31
      vertex -19.7644 20.0777 15
      vertex -19.7644 20.0777 31
    endloop
  endfacet
  facet normal 0.743144 -0.669132 0
    outer loop
      vertex -19.7644 20.0777 15
      vertex -20.3566 19.4201 31
      vertex -20.3566 19.4201 15
    endloop
  endfacet
  facet normal -0.743144 0.669132 0
    outer loop
      vertex 19.7644 -20.0777 15
      vertex 20.3566 -19.4201 31
      vertex 20.3566 -19.4201 15
    endloop
  endfacet
  facet normal -0.743144 0.669132 0
    outer loop
      vertex 20.3566 -19.4201 31
      vertex 19.7644 -20.0777 15
      vertex 19.7644 -20.0777 31
    endloop
  endfacet
  facet normal 0.587785 -0.809017 0
    outer loop
      vertex -19.7644 20.0777 15
      vertex -19.0485 20.5979 31
      vertex -19.7644 20.0777 31
    endloop
  endfacet
  facet normal 0.587785 -0.809017 0
    outer loop
      vertex -19.0485 20.5979 31
      vertex -19.7644 20.0777 15
      vertex -19.0485 20.5979 15
    endloop
  endfacet
  facet normal 0.406737 -0.913545 0
    outer loop
      vertex -19.0485 20.5979 15
      vertex -18.2401 20.9578 31
      vertex -19.0485 20.5979 31
    endloop
  endfacet
  facet normal 0.406737 -0.913545 0
    outer loop
      vertex -18.2401 20.9578 31
      vertex -19.0485 20.5979 15
      vertex -18.2401 20.9578 15
    endloop
  endfacet
  facet normal 0 -1 0
    outer loop
      vertex 16.4895 21.1418 15
      vertex 17.3745 21.1418 31
      vertex 16.4895 21.1418 31
    endloop
  endfacet
  facet normal 0 -1 -0
    outer loop
      vertex 17.3745 21.1418 31
      vertex 16.4895 21.1418 15
      vertex 17.3745 21.1418 15
    endloop
  endfacet
  facet normal -0.743144 -0.669132 0
    outer loop
      vertex 20.3566 19.4201 15
      vertex 19.7644 20.0777 31
      vertex 19.7644 20.0777 15
    endloop
  endfacet
  facet normal -0.743144 -0.669132 0
    outer loop
      vertex 19.7644 20.0777 31
      vertex 20.3566 19.4201 15
      vertex 20.3566 19.4201 31
    endloop
  endfacet
  facet normal 0 1 -0
    outer loop
      vertex 17.3745 -21.1418 15
      vertex 5.06056 -21.1418 31
      vertex 17.3745 -21.1418 31
    endloop
  endfacet
  facet normal 0 1 0
    outer loop
      vertex 5.06056 -21.1418 31
      vertex 17.3745 -21.1418 15
      vertex 5.06056 -21.1418 15
    endloop
  endfacet
  facet normal 0 1 -0
    outer loop
      vertex -5.06056 -21.1418 15
      vertex -16.4895 -21.1418 31
      vertex -5.06056 -21.1418 31
    endloop
  endfacet
  facet normal 0 1 0
    outer loop
      vertex -16.4895 -21.1418 31
      vertex -5.06056 -21.1418 15
      vertex -16.4895 -21.1418 15
    endloop
  endfacet
  facet normal 0.951057 0.309016 0
    outer loop
      vertex -20.799 -18.6537 31
      vertex -21.0725 -17.8121 15
      vertex -21.0725 -17.8121 31
    endloop
  endfacet
  facet normal 0.951057 0.309016 0
    outer loop
      vertex -21.0725 -17.8121 15
      vertex -20.799 -18.6537 31
      vertex -20.799 -18.6537 15
    endloop
  endfacet
  facet normal 0.587785 0.809017 -0
    outer loop
      vertex -19.0485 -20.5979 15
      vertex -19.7644 -20.0777 31
      vertex -19.0485 -20.5979 31
    endloop
  endfacet
  facet normal 0.587785 0.809017 0
    outer loop
      vertex -19.7644 -20.0777 31
      vertex -19.0485 -20.5979 15
      vertex -19.7644 -20.0777 15
    endloop
  endfacet
  facet normal 1 -0 0
    outer loop
      vertex -21.165 -16.932 31
      vertex -21.165 -5.08375 15
      vertex -21.165 -5.08375 31
    endloop
  endfacet
  facet normal 1 0 0
    outer loop
      vertex -21.165 -5.08375 15
      vertex -21.165 -16.932 31
      vertex -21.165 -16.932 15
    endloop
  endfacet
  facet normal 1 -0 0
    outer loop
      vertex -21.165 5.08375 31
      vertex -21.165 16.932 15
      vertex -21.165 16.932 31
    endloop
  endfacet
  facet normal 1 0 0
    outer loop
      vertex -21.165 16.932 15
      vertex -21.165 5.08375 31
      vertex -21.165 5.08375 15
    endloop
  endfacet
  facet normal 0 0 1
    outer loop
      vertex -5.06056 21.1418 15
      vertex -9.59687 16.6 15
      vertex -7.52187 16.6 15
    endloop
  endfacet
  facet normal 0 0 1
    outer loop
      vertex -13.4875 9.59688 15
      vertex -9.59687 13.4875 15
      vertex -9.59687 16.6 15
    endloop
  endfacet
  facet normal 0 0 1
    outer loop
      vertex -9.59687 13.4875 15
      vertex -13.4875 9.59688 15
      vertex -10.8937 8.04062 15
    endloop
  endfacet
  facet normal 0 0 1
    outer loop
      vertex -9.59687 16.6 15
      vertex -16.6 9.59688 15
      vertex -13.4875 9.59688 15
    endloop
  endfacet
  facet normal -0 0 1
    outer loop
      vertex -17.3745 21.1418 15
      vertex -9.59687 16.6 15
      vertex -5.06056 21.1418 15
    endloop
  endfacet
  facet normal 0 0 1
    outer loop
      vertex -9.59687 16.6 15
      vertex -21.165 16.932 15
      vertex -16.6 9.59688 15
    endloop
  endfacet
  facet normal -0 0 1
    outer loop
      vertex -21.165 16.932 15
      vertex -9.59687 16.6 15
      vertex -17.3745 21.1418 15
    endloop
  endfacet
  facet normal -0 0 1
    outer loop
      vertex -7.52187 16.6 15
      vertex -3.89062 16.3406 15
      vertex -3.89062 19.9719 15
    endloop
  endfacet
  facet normal 0 0 1
    outer loop
      vertex -7.52187 16.6 15
      vertex -3.89062 19.9719 15
      vertex -5.06056 21.1418 15
    endloop
  endfacet
  facet normal 0 0 1
    outer loop
      vertex -3.89062 16.3406 15
      vertex -7.52187 16.6 15
      vertex -4.66875 15.5625 15
    endloop
  endfacet
  facet normal 0 0 1
    outer loop
      vertex -4.66875 15.5625 15
      vertex -7.52187 16.6 15
      vertex -7.52187 15.5625 15
    endloop
  endfacet
  facet normal 0 0 1
    outer loop
      vertex -5.1875 -8.55937 15
      vertex -8.55937 -5.1875 15
      vertex -8.04062 -10.8938 15
    endloop
  endfacet
  facet normal -0 0 1
    outer loop
      vertex -10.8938 -8.04062 15
      vertex -8.04062 -10.8938 15
      vertex -8.55937 -5.1875 15
    endloop
  endfacet
  facet normal -0 0 1
    outer loop
      vertex -13.4875 -9.59687 15
      vertex -9.59688 -13.4875 15
      vertex -10.8938 -8.04062 15
    endloop
  endfacet
  facet normal 0 0 1
    outer loop
      vertex -8.04062 -10.8938 15
      vertex -10.8938 -8.04062 15
      vertex -9.59688 -13.4875 15
    endloop
  endfacet
  facet normal 0 0 1
    outer loop
      vertex 21.165 16.932 15
      vertex 16.4895 21.1418 15
      vertex 16.6 9.59687 15
    endloop
  endfacet
  facet normal -0 0 1
    outer loop
      vertex 9.59688 16.6 15
      vertex 16.6 9.59687 15
      vertex 16.4895 21.1418 15
    endloop
  endfacet
  facet normal 0 0 1
    outer loop
      vertex 16.6 9.59687 15
      vertex 9.59688 16.6 15
      vertex 13.4875 9.59687 15
    endloop
  endfacet
  facet normal 0 0 1
    outer loop
      vertex 13.4875 9.59687 15
      vertex 9.59688 16.6 15
      vertex 9.59688 13.4875 15
    endloop
  endfacet
  facet normal -0 0 1
    outer loop
      vertex 5.06056 21.1418 15
      vertex 9.59688 16.6 15
      vertex 16.4895 21.1418 15
    endloop
  endfacet
  facet normal 0 0 1
    outer loop
      vertex 9.59688 16.6 15
      vertex 5.06056 21.1418 15
      vertex 7.52187 16.6 15
    endloop
  endfacet
  facet normal -0 0 1
    outer loop
      vertex 3.89062 19.9719 15
      vertex 7.52187 16.6 15
      vertex 5.06056 21.1418 15
    endloop
  endfacet
  facet normal 0 0 1
    outer loop
      vertex 3.89062 16.3406 15
      vertex 7.52187 16.6 15
      vertex 3.89062 19.9719 15
    endloop
  endfacet
  facet normal 0 -0 1
    outer loop
      vertex 4.66875 15.5625 15
      vertex 7.52187 16.6 15
      vertex 3.89062 16.3406 15
    endloop
  endfacet
  facet normal 0 0 1
    outer loop
      vertex 7.52187 16.6 15
      vertex 4.66875 15.5625 15
      vertex 7.52187 15.5625 15
    endloop
  endfacet
  facet normal 0 0 1
    outer loop
      vertex 17.3745 21.1418 15
      vertex 21.165 16.932 15
      vertex 21.0725 17.8121 15
    endloop
  endfacet
  facet normal 0 0 1
    outer loop
      vertex 17.3745 21.1418 15
      vertex 21.0725 17.8121 15
      vertex 20.799 18.6537 15
    endloop
  endfacet
  facet normal 0 0 1
    outer loop
      vertex 17.3745 21.1418 15
      vertex 20.799 18.6537 15
      vertex 20.3566 19.4201 15
    endloop
  endfacet
  facet normal 0 0 1
    outer loop
      vertex 21.165 16.932 15
      vertex 16.6 9.59687 15
      vertex 21.165 5.08375 15
    endloop
  endfacet
  facet normal 0 0 1
    outer loop
      vertex 17.3745 21.1418 15
      vertex 20.3566 19.4201 15
      vertex 19.7644 20.0777 15
    endloop
  endfacet
  facet normal 0 0 1
    outer loop
      vertex 17.3745 21.1418 15
      vertex 19.7644 20.0777 15
      vertex 19.0485 20.5979 15
    endloop
  endfacet
  facet normal 0 0 1
    outer loop
      vertex 17.3745 21.1418 15
      vertex 19.0485 20.5979 15
      vertex 18.2401 20.9578 15
    endloop
  endfacet
  facet normal -0 0 1
    outer loop
      vertex 16.4895 21.1418 15
      vertex 21.165 16.932 15
      vertex 17.3745 21.1418 15
    endloop
  endfacet
  facet normal -0 0 1
    outer loop
      vertex 16.6 7.52187 15
      vertex 21.165 5.08375 15
      vertex 16.6 9.59687 15
    endloop
  endfacet
  facet normal 0 0 1
    outer loop
      vertex 21.165 5.08375 15
      vertex 16.6 7.52187 15
      vertex 19.9719 3.89062 15
    endloop
  endfacet
  facet normal 0 0 1
    outer loop
      vertex 16.6 7.52187 15
      vertex 16.3406 3.89062 15
      vertex 19.9719 3.89062 15
    endloop
  endfacet
  facet normal 0 0 1
    outer loop
      vertex 15.5625 4.66875 15
      vertex 16.6 7.52187 15
      vertex 15.5625 7.52187 15
    endloop
  endfacet
  facet normal 0 0 1
    outer loop
      vertex 16.6 7.52187 15
      vertex 15.5625 4.66875 15
      vertex 16.3406 3.89062 15
    endloop
  endfacet
  facet normal 0 0 1
    outer loop
      vertex 13.4875 9.59687 15
      vertex 9.59688 13.4875 15
      vertex 10.8938 8.04062 15
    endloop
  endfacet
  facet normal -0 0 1
    outer loop
      vertex 8.04062 10.8937 15
      vertex 10.8938 8.04062 15
      vertex 9.59688 13.4875 15
    endloop
  endfacet
  facet normal -0 0 1
    outer loop
      vertex 5.1875 8.55937 15
      vertex 8.55937 5.1875 15
      vertex 8.04062 10.8937 15
    endloop
  endfacet
  facet normal 0 0 1
    outer loop
      vertex 10.8938 8.04062 15
      vertex 8.04062 10.8937 15
      vertex 8.55937 5.1875 15
    endloop
  endfacet
  facet normal 0 0 1
    outer loop
      vertex 8.04062 -10.8938 15
      vertex 10.8937 -8.04062 15
      vertex 8.55937 -5.1875 15
    endloop
  endfacet
  facet normal 0 0 1
    outer loop
      vertex 10.8937 -8.04062 15
      vertex 8.04062 -10.8938 15
      vertex 9.59688 -13.4875 15
    endloop
  endfacet
  facet normal 0 0 1
    outer loop
      vertex 8.55937 5.1875 15
      vertex 5.1875 8.55937 15
      vertex 8.55937 -5.1875 15
    endloop
  endfacet
  facet normal 0 0 1
    outer loop
      vertex 5.1875 -8.55937 15
      vertex 8.55937 -5.1875 15
      vertex 5.1875 8.55937 15
    endloop
  endfacet
  facet normal 0 0 1
    outer loop
      vertex 8.55937 -5.1875 15
      vertex 5.1875 -8.55937 15
      vertex 8.04062 -10.8938 15
    endloop
  endfacet
  facet normal -0 0 1
    outer loop
      vertex -5.1875 8.55937 15
      vertex 5.1875 -8.55937 15
      vertex 5.1875 8.55937 15
    endloop
  endfacet
  facet normal 0 0 1
    outer loop
      vertex -5.1875 8.55937 15
      vertex -5.1875 -8.55937 15
      vertex 5.1875 -8.55937 15
    endloop
  endfacet
  facet normal 0 0 1
    outer loop
      vertex -8.55937 5.1875 15
      vertex -5.1875 8.55937 15
      vertex -8.04062 10.8938 15
    endloop
  endfacet
  facet normal 0 0 1
    outer loop
      vertex -5.1875 8.55937 15
      vertex -8.55937 5.1875 15
      vertex -5.1875 -8.55937 15
    endloop
  endfacet
  facet normal -0 0 1
    outer loop
      vertex -8.55937 -5.1875 15
      vertex -5.1875 -8.55937 15
      vertex -8.55937 5.1875 15
    endloop
  endfacet
  facet normal 0 0 1
    outer loop
      vertex -10.8937 8.04062 15
      vertex -8.04062 10.8938 15
      vertex -9.59687 13.4875 15
    endloop
  endfacet
  facet normal 0 0 1
    outer loop
      vertex -8.04062 10.8938 15
      vertex -10.8937 8.04062 15
      vertex -8.55937 5.1875 15
    endloop
  endfacet
  facet normal -0 0 1
    outer loop
      vertex 16.6 -9.59688 15
      vertex 21.165 -16.932 15
      vertex 21.165 -5.08375 15
    endloop
  endfacet
  facet normal -0 0 1
    outer loop
      vertex 9.59688 -16.6 15
      vertex 21.165 -16.932 15
      vertex 16.6 -9.59688 15
    endloop
  endfacet
  facet normal 0 0 1
    outer loop
      vertex 21.165 -16.932 15
      vertex 17.3745 -21.1418 15
      vertex 21.0725 -17.8121 15
    endloop
  endfacet
  facet normal 0 0 1
    outer loop
      vertex 16.6 -7.52187 15
      vertex 21.165 -5.08375 15
      vertex 19.9719 -3.89062 15
    endloop
  endfacet
  facet normal 0 0 1
    outer loop
      vertex 21.0725 -17.8121 15
      vertex 17.3745 -21.1418 15
      vertex 20.799 -18.6537 15
    endloop
  endfacet
  facet normal 0 0 1
    outer loop
      vertex 20.799 -18.6537 15
      vertex 17.3745 -21.1418 15
      vertex 20.3566 -19.4201 15
    endloop
  endfacet
  facet normal 0 0 1
    outer loop
      vertex 20.3566 -19.4201 15
      vertex 17.3745 -21.1418 15
      vertex 19.7644 -20.0777 15
    endloop
  endfacet
  facet normal 0 0 1
    outer loop
      vertex 19.7644 -20.0777 15
      vertex 17.3745 -21.1418 15
      vertex 19.0485 -20.5979 15
    endloop
  endfacet
  facet normal 0 0 1
    outer loop
      vertex 21.165 -5.08375 15
      vertex 16.6 -7.52187 15
      vertex 16.6 -9.59688 15
    endloop
  endfacet
  facet normal -0 0 1
    outer loop
      vertex 16.3406 -3.89062 15
      vertex 16.6 -7.52187 15
      vertex 19.9719 -3.89062 15
    endloop
  endfacet
  facet normal -0 0 1
    outer loop
      vertex 15.5625 -4.66875 15
      vertex 16.6 -7.52187 15
      vertex 16.3406 -3.89062 15
    endloop
  endfacet
  facet normal 0 0 1
    outer loop
      vertex 16.6 -7.52187 15
      vertex 15.5625 -4.66875 15
      vertex 15.5625 -7.52187 15
    endloop
  endfacet
  facet normal 0 0 1
    outer loop
      vertex 19.0485 -20.5979 15
      vertex 17.3745 -21.1418 15
      vertex 18.2401 -20.9578 15
    endloop
  endfacet
  facet normal 0 0 1
    outer loop
      vertex 9.59688 -16.6 15
      vertex 16.6 -9.59688 15
      vertex 13.4875 -9.59688 15
    endloop
  endfacet
  facet normal 0 0 1
    outer loop
      vertex 9.59688 -13.4875 15
      vertex 13.4875 -9.59688 15
      vertex 10.8937 -8.04062 15
    endloop
  endfacet
  facet normal 0 0 1
    outer loop
      vertex 9.59688 -16.6 15
      vertex 13.4875 -9.59688 15
      vertex 9.59688 -13.4875 15
    endloop
  endfacet
  facet normal 0 0 1
    outer loop
      vertex 21.165 -16.932 15
      vertex 9.59688 -16.6 15
      vertex 17.3745 -21.1418 15
    endloop
  endfacet
  facet normal 0 0 1
    outer loop
      vertex 5.06056 -21.1418 15
      vertex 9.59688 -16.6 15
      vertex 7.52187 -16.6 15
    endloop
  endfacet
  facet normal 0 0 1
    outer loop
      vertex 9.59688 -16.6 15
      vertex 5.06056 -21.1418 15
      vertex 17.3745 -21.1418 15
    endloop
  endfacet
  facet normal -0 0 1
    outer loop
      vertex 4.66875 -15.5625 15
      vertex 7.52187 -16.6 15
      vertex 7.52187 -15.5625 15
    endloop
  endfacet
  facet normal 0 0 1
    outer loop
      vertex 7.52187 -16.6 15
      vertex 4.66875 -15.5625 15
      vertex 3.89062 -16.3406 15
    endloop
  endfacet
  facet normal 0 0 1
    outer loop
      vertex 7.52187 -16.6 15
      vertex 3.89062 -16.3406 15
      vertex 3.89062 -19.9719 15
    endloop
  endfacet
  facet normal 0 0 1
    outer loop
      vertex 7.52187 -16.6 15
      vertex 3.89062 -19.9719 15
      vertex 5.06056 -21.1418 15
    endloop
  endfacet
  facet normal 0 0 1
    outer loop
      vertex -7.52187 -16.6 15
      vertex -3.89062 -16.3406 15
      vertex -4.66875 -15.5625 15
    endloop
  endfacet
  facet normal 0 0 1
    outer loop
      vertex -3.89062 -16.3406 15
      vertex -7.52187 -16.6 15
      vertex -3.89062 -19.9719 15
    endloop
  endfacet
  facet normal 0 0 1
    outer loop
      vertex -7.52187 -16.6 15
      vertex -4.66875 -15.5625 15
      vertex -7.52187 -15.5625 15
    endloop
  endfacet
  facet normal 0 0 1
    outer loop
      vertex -3.89062 -19.9719 15
      vertex -7.52187 -16.6 15
      vertex -5.06056 -21.1418 15
    endloop
  endfacet
  facet normal -0 0 1
    outer loop
      vertex -9.59688 -16.6 15
      vertex -5.06056 -21.1418 15
      vertex -7.52187 -16.6 15
    endloop
  endfacet
  facet normal 0 0 1
    outer loop
      vertex -9.59688 -13.4875 15
      vertex -13.4875 -9.59687 15
      vertex -9.59688 -16.6 15
    endloop
  endfacet
  facet normal 0 0 1
    outer loop
      vertex -9.59688 -16.6 15
      vertex -16.4895 -21.1418 15
      vertex -5.06056 -21.1418 15
    endloop
  endfacet
  facet normal -0 0 1
    outer loop
      vertex -16.6 -9.59687 15
      vertex -9.59688 -16.6 15
      vertex -13.4875 -9.59687 15
    endloop
  endfacet
  facet normal 0 0 1
    outer loop
      vertex -9.59688 -16.6 15
      vertex -16.6 -9.59687 15
      vertex -16.4895 -21.1418 15
    endloop
  endfacet
  facet normal -0 0 1
    outer loop
      vertex -21.165 -16.932 15
      vertex -16.4895 -21.1418 15
      vertex -16.6 -9.59687 15
    endloop
  endfacet
  facet normal -0 0 1
    outer loop
      vertex -16.6 7.52187 15
      vertex -15.5625 4.66875 15
      vertex -15.5625 7.52187 15
    endloop
  endfacet
  facet normal 0 0 1
    outer loop
      vertex -15.5625 4.66875 15
      vertex -16.6 7.52187 15
      vertex -16.3406 3.89062 15
    endloop
  endfacet
  facet normal 0 0 1
    outer loop
      vertex -21.165 16.932 15
      vertex -17.3745 21.1418 15
      vertex -18.2401 20.9578 15
    endloop
  endfacet
  facet normal 0 0 1
    outer loop
      vertex -21.165 5.08375 15
      vertex -16.6 9.59688 15
      vertex -21.165 16.932 15
    endloop
  endfacet
  facet normal 0 0 1
    outer loop
      vertex -21.165 16.932 15
      vertex -18.2401 20.9578 15
      vertex -19.0485 20.5979 15
    endloop
  endfacet
  facet normal 0 0 1
    outer loop
      vertex -21.165 16.932 15
      vertex -19.0485 20.5979 15
      vertex -19.7644 20.0777 15
    endloop
  endfacet
  facet normal 0 0 1
    outer loop
      vertex -16.6 9.59688 15
      vertex -21.165 5.08375 15
      vertex -16.6 7.52187 15
    endloop
  endfacet
  facet normal 0 0 1
    outer loop
      vertex -21.165 16.932 15
      vertex -19.7644 20.0777 15
      vertex -20.3566 19.4201 15
    endloop
  endfacet
  facet normal 0 0 1
    outer loop
      vertex -21.165 16.932 15
      vertex -20.3566 19.4201 15
      vertex -20.799 18.6537 15
    endloop
  endfacet
  facet normal 0 0 1
    outer loop
      vertex -21.165 16.932 15
      vertex -20.799 18.6537 15
      vertex -21.0725 17.8121 15
    endloop
  endfacet
  facet normal 0 -0 1
    outer loop
      vertex -19.9719 3.89062 15
      vertex -16.6 7.52187 15
      vertex -21.165 5.08375 15
    endloop
  endfacet
  facet normal 0 0 1
    outer loop
      vertex -16.6 7.52187 15
      vertex -19.9719 3.89062 15
      vertex -16.3406 3.89062 15
    endloop
  endfacet
  facet normal 0 0 1
    outer loop
      vertex -16.6 -7.52187 15
      vertex -15.5625 -4.66875 15
      vertex -16.3406 -3.89062 15
    endloop
  endfacet
  facet normal 0 0 1
    outer loop
      vertex -15.5625 -4.66875 15
      vertex -16.6 -7.52187 15
      vertex -15.5625 -7.52187 15
    endloop
  endfacet
  facet normal 0 0 1
    outer loop
      vertex -21.165 -5.08375 15
      vertex -16.6 -9.59687 15
      vertex -16.6 -7.52187 15
    endloop
  endfacet
  facet normal 0 0 1
    outer loop
      vertex -16.4895 -21.1418 15
      vertex -21.165 -16.932 15
      vertex -17.3745 -21.1418 15
    endloop
  endfacet
  facet normal -0 0 1
    outer loop
      vertex -19.9719 -3.89062 15
      vertex -16.6 -7.52187 15
      vertex -16.3406 -3.89062 15
    endloop
  endfacet
  facet normal 0 0 1
    outer loop
      vertex -17.3745 -21.1418 15
      vertex -21.165 -16.932 15
      vertex -18.2401 -20.9578 15
    endloop
  endfacet
  facet normal 0 0 1
    outer loop
      vertex -18.2401 -20.9578 15
      vertex -21.165 -16.932 15
      vertex -19.0485 -20.5979 15
    endloop
  endfacet
  facet normal 0 0 1
    outer loop
      vertex -16.6 -7.52187 15
      vertex -19.9719 -3.89062 15
      vertex -21.165 -5.08375 15
    endloop
  endfacet
  facet normal 0 0 1
    outer loop
      vertex -19.0485 -20.5979 15
      vertex -21.165 -16.932 15
      vertex -19.7644 -20.0777 15
    endloop
  endfacet
  facet normal 0 0 1
    outer loop
      vertex -19.7644 -20.0777 15
      vertex -21.165 -16.932 15
      vertex -20.3566 -19.4201 15
    endloop
  endfacet
  facet normal 0 0 1
    outer loop
      vertex -20.3566 -19.4201 15
      vertex -21.165 -16.932 15
      vertex -20.799 -18.6537 15
    endloop
  endfacet
  facet normal 0 0 1
    outer loop
      vertex -16.6 -9.59687 15
      vertex -21.165 -5.08375 15
      vertex -21.165 -16.932 15
    endloop
  endfacet
  facet normal 0 0 1
    outer loop
      vertex -20.799 -18.6537 15
      vertex -21.165 -16.932 15
      vertex -21.0725 -17.8121 15
    endloop
  endfacet
  facet normal -0.866025 0.5 0
    outer loop
      vertex 20.3566 -19.4201 15
      vertex 20.799 -18.6537 31
      vertex 20.799 -18.6537 15
    endloop
  endfacet
  facet normal -0.866025 0.5 0
    outer loop
      vertex 20.799 -18.6537 31
      vertex 20.3566 -19.4201 15
      vertex 20.3566 -19.4201 31
    endloop
  endfacet
  facet normal -0.951057 0.309016 0
    outer loop
      vertex 20.799 -18.6537 15
      vertex 21.0725 -17.8121 31
      vertex 21.0725 -17.8121 15
    endloop
  endfacet
  facet normal -0.951057 0.309016 0
    outer loop
      vertex 21.0725 -17.8121 31
      vertex 20.799 -18.6537 15
      vertex 20.799 -18.6537 31
    endloop
  endfacet
  facet normal -0.207912 -0.978148 0
    outer loop
      vertex 17.3745 21.1418 15
      vertex 18.2401 20.9578 31
      vertex 17.3745 21.1418 31
    endloop
  endfacet
  facet normal -0.207912 -0.978148 -0
    outer loop
      vertex 18.2401 20.9578 31
      vertex 17.3745 21.1418 15
      vertex 18.2401 20.9578 15
    endloop
  endfacet
  facet normal -0.866025 -0.5 0
    outer loop
      vertex 20.799 18.6537 15
      vertex 20.3566 19.4201 31
      vertex 20.3566 19.4201 15
    endloop
  endfacet
  facet normal -0.866025 -0.5 0
    outer loop
      vertex 20.3566 19.4201 31
      vertex 20.799 18.6537 15
      vertex 20.799 18.6537 31
    endloop
  endfacet
  facet normal -0.587785 0.809017 0
    outer loop
      vertex 19.7644 -20.0777 15
      vertex 19.0485 -20.5979 31
      vertex 19.7644 -20.0777 31
    endloop
  endfacet
  facet normal -0.587785 0.809017 0
    outer loop
      vertex 19.0485 -20.5979 31
      vertex 19.7644 -20.0777 15
      vertex 19.0485 -20.5979 15
    endloop
  endfacet
  facet normal 0.866025 0.5 0
    outer loop
      vertex -20.3566 -19.4201 31
      vertex -20.799 -18.6537 15
      vertex -20.799 -18.6537 31
    endloop
  endfacet
  facet normal 0.866025 0.5 0
    outer loop
      vertex -20.799 -18.6537 15
      vertex -20.3566 -19.4201 31
      vertex -20.3566 -19.4201 15
    endloop
  endfacet
  facet normal 0.406737 0.913545 -0
    outer loop
      vertex -18.2401 -20.9578 15
      vertex -19.0485 -20.5979 31
      vertex -18.2401 -20.9578 31
    endloop
  endfacet
  facet normal 0.406737 0.913545 0
    outer loop
      vertex -19.0485 -20.5979 31
      vertex -18.2401 -20.9578 15
      vertex -19.0485 -20.5979 15
    endloop
  endfacet
  facet normal 0.866025 -0.5 0
    outer loop
      vertex -20.799 18.6537 31
      vertex -20.3566 19.4201 15
      vertex -20.3566 19.4201 31
    endloop
  endfacet
  facet normal 0.866025 -0.5 0
    outer loop
      vertex -20.3566 19.4201 15
      vertex -20.799 18.6537 31
      vertex -20.799 18.6537 15
    endloop
  endfacet
  facet normal 0.994522 -0.10453 0
    outer loop
      vertex -21.165 16.932 31
      vertex -21.0725 17.8121 15
      vertex -21.0725 17.8121 31
    endloop
  endfacet
  facet normal 0.994522 -0.10453 0
    outer loop
      vertex -21.0725 17.8121 15
      vertex -21.165 16.932 31
      vertex -21.165 16.932 15
    endloop
  endfacet
  facet normal 0.951057 -0.309016 0
    outer loop
      vertex -21.0725 17.8121 31
      vertex -20.799 18.6537 15
      vertex -20.799 18.6537 31
    endloop
  endfacet
  facet normal 0.951057 -0.309016 0
    outer loop
      vertex -20.799 18.6537 15
      vertex -21.0725 17.8121 31
      vertex -21.0725 17.8121 15
    endloop
  endfacet
  facet normal -0.587785 -0.809017 0
    outer loop
      vertex 19.0485 20.5979 15
      vertex 19.7644 20.0777 31
      vertex 19.0485 20.5979 31
    endloop
  endfacet
  facet normal -0.587785 -0.809017 -0
    outer loop
      vertex 19.7644 20.0777 31
      vertex 19.0485 20.5979 15
      vertex 19.7644 20.0777 15
    endloop
  endfacet
  facet normal -0.951057 -0.309016 0
    outer loop
      vertex 21.0725 17.8121 15
      vertex 20.799 18.6537 31
      vertex 20.799 18.6537 15
    endloop
  endfacet
  facet normal -0.951057 -0.309016 0
    outer loop
      vertex 20.799 18.6537 31
      vertex 21.0725 17.8121 15
      vertex 21.0725 17.8121 31
    endloop
  endfacet
  facet normal 0.743144 0.669132 0
    outer loop
      vertex -19.7644 -20.0777 31
      vertex -20.3566 -19.4201 15
      vertex -20.3566 -19.4201 31
    endloop
  endfacet
  facet normal 0.743144 0.669132 0
    outer loop
      vertex -20.3566 -19.4201 15
      vertex -19.7644 -20.0777 31
      vertex -19.7644 -20.0777 15
    endloop
  endfacet
  facet normal 1 -0 0
    outer loop
      vertex 25 -20 31
      vertex 25 20 0
      vertex 25 20 31
    endloop
  endfacet
  facet normal 1 0 0
    outer loop
      vertex 25 20 0
      vertex 25 -20 31
      vertex 25 -20 0
    endloop
  endfacet
  facet normal 0.83147 0.55557 0
    outer loop
      vertex 24.6194 21.9134 31
      vertex 23.5355 23.5355 0
      vertex 23.5355 23.5355 31
    endloop
  endfacet
  facet normal 0.83147 0.55557 0
    outer loop
      vertex 23.5355 23.5355 0
      vertex 24.6194 21.9134 31
      vertex 24.6194 21.9134 0
    endloop
  endfacet
  facet normal 0.55557 -0.83147 0
    outer loop
      vertex 21.9134 -24.6194 0
      vertex 23.5355 -23.5355 31
      vertex 21.9134 -24.6194 31
    endloop
  endfacet
  facet normal 0.55557 -0.83147 0
    outer loop
      vertex 23.5355 -23.5355 31
      vertex 21.9134 -24.6194 0
      vertex 23.5355 -23.5355 0
    endloop
  endfacet
  facet normal 0.980785 -0.195091 0
    outer loop
      vertex 24.6194 -21.9134 31
      vertex 25 -20 0
      vertex 25 -20 31
    endloop
  endfacet
  facet normal 0.980785 -0.195091 0
    outer loop
      vertex 25 -20 0
      vertex 24.6194 -21.9134 31
      vertex 24.6194 -21.9134 0
    endloop
  endfacet
  facet normal 0.980785 0.195091 0
    outer loop
      vertex 25 20 31
      vertex 24.6194 21.9134 0
      vertex 24.6194 21.9134 31
    endloop
  endfacet
  facet normal 0.980785 0.195091 0
    outer loop
      vertex 24.6194 21.9134 0
      vertex 25 20 31
      vertex 25 20 0
    endloop
  endfacet
  facet normal -0.980785 0.195091 0
    outer loop
      vertex -25 20 0
      vertex -24.6194 21.9134 31
      vertex -24.6194 21.9134 0
    endloop
  endfacet
  facet normal -0.980785 0.195091 0
    outer loop
      vertex -24.6194 21.9134 31
      vertex -25 20 0
      vertex -25 20 31
    endloop
  endfacet
  facet normal 0 0 -1
    outer loop
      vertex 20 -25 0
      vertex 25 -20 0
      vertex 24.6194 -21.9134 0
    endloop
  endfacet
  facet normal -0 0 -1
    outer loop
      vertex 25 -20 0
      vertex 20 -25 0
      vertex 25 20 0
    endloop
  endfacet
  facet normal 0 0 -1
    outer loop
      vertex 20 -25 0
      vertex 24.6194 -21.9134 0
      vertex 23.5355 -23.5355 0
    endloop
  endfacet
  facet normal 0 0 -1
    outer loop
      vertex 20 25 0
      vertex 25 20 0
      vertex 20 -25 0
    endloop
  endfacet
  facet normal 0 0 -1
    outer loop
      vertex 20 -25 0
      vertex 23.5355 -23.5355 0
      vertex 21.9134 -24.6194 0
    endloop
  endfacet
  facet normal 0 0 -1
    outer loop
      vertex 25 20 0
      vertex 20 25 0
      vertex 24.6194 21.9134 0
    endloop
  endfacet
  facet normal 0 0 -1
    outer loop
      vertex 24.6194 21.9134 0
      vertex 20 25 0
      vertex 23.5355 23.5355 0
    endloop
  endfacet
  facet normal 0 0 -1
    outer loop
      vertex 23.5355 23.5355 0
      vertex 20 25 0
      vertex 21.9134 24.6194 0
    endloop
  endfacet
  facet normal 0 0 -1
    outer loop
      vertex -20 -25 0
      vertex 20 25 0
      vertex 20 -25 0
    endloop
  endfacet
  facet normal 0 0 -1
    outer loop
      vertex -20 -25 0
      vertex -20 25 0
      vertex 20 25 0
    endloop
  endfacet
  facet normal 0 0 -1
    outer loop
      vertex -25 -20 0
      vertex -20 -25 0
      vertex -21.9134 -24.6194 0
    endloop
  endfacet
  facet normal 0 0 -1
    outer loop
      vertex -20 -25 0
      vertex -25 -20 0
      vertex -20 25 0
    endloop
  endfacet
  facet normal 0 0 -1
    outer loop
      vertex -25 -20 0
      vertex -21.9134 -24.6194 0
      vertex -23.5355 -23.5355 0
    endloop
  endfacet
  facet normal 0 0 -1
    outer loop
      vertex -25 20 0
      vertex -20 25 0
      vertex -25 -20 0
    endloop
  endfacet
  facet normal 0 0 -1
    outer loop
      vertex -25 -20 0
      vertex -23.5355 -23.5355 0
      vertex -24.6194 -21.9134 0
    endloop
  endfacet
  facet normal 0 0 -1
    outer loop
      vertex -20 25 0
      vertex -25 20 0
      vertex -21.9134 24.6194 0
    endloop
  endfacet
  facet normal 0 0 -1
    outer loop
      vertex -21.9134 24.6194 0
      vertex -25 20 0
      vertex -23.5355 23.5355 0
    endloop
  endfacet
  facet normal 0 0 -1
    outer loop
      vertex -23.5355 23.5355 0
      vertex -25 20 0
      vertex -24.6194 21.9134 0
    endloop
  endfacet
  facet normal 0 -1 0
    outer loop
      vertex -20 -25 0
      vertex 20 -25 31
      vertex -20 -25 31
    endloop
  endfacet
  facet normal 0 -1 -0
    outer loop
      vertex 20 -25 31
      vertex -20 -25 0
      vertex 20 -25 0
    endloop
  endfacet
  facet normal 0.195091 -0.980785 0
    outer loop
      vertex 20 -25 0
      vertex 21.9134 -24.6194 31
      vertex 20 -25 31
    endloop
  endfacet
  facet normal 0.195091 -0.980785 0
    outer loop
      vertex 21.9134 -24.6194 31
      vertex 20 -25 0
      vertex 21.9134 -24.6194 0
    endloop
  endfacet
  facet normal 0.83147 -0.55557 0
    outer loop
      vertex 23.5355 -23.5355 31
      vertex 24.6194 -21.9134 0
      vertex 24.6194 -21.9134 31
    endloop
  endfacet
  facet normal 0.83147 -0.55557 0
    outer loop
      vertex 24.6194 -21.9134 0
      vertex 23.5355 -23.5355 31
      vertex 23.5355 -23.5355 0
    endloop
  endfacet
  facet normal 0.195091 0.980785 -0
    outer loop
      vertex 21.9134 24.6194 0
      vertex 20 25 31
      vertex 21.9134 24.6194 31
    endloop
  endfacet
  facet normal 0.195091 0.980785 0
    outer loop
      vertex 20 25 31
      vertex 21.9134 24.6194 0
      vertex 20 25 0
    endloop
  endfacet
  facet normal -0 0 1
    outer loop
      vertex -9.59687 16.6 31
      vertex -7.52187 15.5625 31
      vertex -7.52187 16.6 31
    endloop
  endfacet
  facet normal 0 0 1
    outer loop
      vertex -7.52187 15.5625 31
      vertex -9.59687 16.6 31
      vertex -9.59687 13.4875 31
    endloop
  endfacet
  facet normal 0 0 1
    outer loop
      vertex -7.52187 15.5625 31
      vertex -9.59687 13.4875 31
      vertex -8.04062 10.8938 31
    endloop
  endfacet
  facet normal 0 0 1
    outer loop
      vertex 4.66875 -15.5625 31
      vertex 8.04062 -10.8938 31
      vertex 5.1875 -8.55937 31
    endloop
  endfacet
  facet normal 0 0 1
    outer loop
      vertex 8.04062 -10.8938 31
      vertex 4.66875 -15.5625 31
      vertex 7.52187 -15.5625 31
    endloop
  endfacet
  facet normal 0 0 1
    outer loop
      vertex 5.1875 -8.55937 31
      vertex 3.89062 -16.3406 31
      vertex 4.66875 -15.5625 31
    endloop
  endfacet
  facet normal 0 0 1
    outer loop
      vertex 3.89062 -16.3406 31
      vertex -3.89062 -16.3406 31
      vertex 3.89062 -19.9719 31
    endloop
  endfacet
  facet normal 0 0 1
    outer loop
      vertex 5.1875 -8.55937 31
      vertex -3.89062 -16.3406 31
      vertex 3.89062 -16.3406 31
    endloop
  endfacet
  facet normal 0 0 1
    outer loop
      vertex 5.1875 -8.55937 31
      vertex -4.66875 -15.5625 31
      vertex -3.89062 -16.3406 31
    endloop
  endfacet
  facet normal -0 0 1
    outer loop
      vertex -5.1875 -8.55937 31
      vertex -4.66875 -15.5625 31
      vertex 5.1875 -8.55937 31
    endloop
  endfacet
  facet normal -0 0 1
    outer loop
      vertex -8.04062 -10.8938 31
      vertex -4.66875 -15.5625 31
      vertex -5.1875 -8.55937 31
    endloop
  endfacet
  facet normal 0 0 1
    outer loop
      vertex -4.66875 -15.5625 31
      vertex -8.04062 -10.8938 31
      vertex -7.52187 -15.5625 31
    endloop
  endfacet
  facet normal -0 0 1
    outer loop
      vertex -9.59688 -13.4875 31
      vertex -7.52187 -15.5625 31
      vertex -8.04062 -10.8938 31
    endloop
  endfacet
  facet normal 0 0 1
    outer loop
      vertex -9.59688 -16.6 31
      vertex -7.52187 -15.5625 31
      vertex -9.59688 -13.4875 31
    endloop
  endfacet
  facet normal 0 0 1
    outer loop
      vertex -7.52187 -15.5625 31
      vertex -9.59688 -16.6 31
      vertex -7.52187 -16.6 31
    endloop
  endfacet
  facet normal 0 0 1
    outer loop
      vertex 7.52187 -15.5625 31
      vertex 9.59688 -13.4875 31
      vertex 8.04062 -10.8938 31
    endloop
  endfacet
  facet normal 0 0 1
    outer loop
      vertex 9.59688 -13.4875 31
      vertex 7.52187 -15.5625 31
      vertex 9.59688 -16.6 31
    endloop
  endfacet
  facet normal 0 0 1
    outer loop
      vertex 9.59688 -16.6 31
      vertex 7.52187 -15.5625 31
      vertex 7.52187 -16.6 31
    endloop
  endfacet
  facet normal 0 0 1
    outer loop
      vertex 16.6 9.59687 31
      vertex 15.5625 7.52187 31
      vertex 16.6 7.52187 31
    endloop
  endfacet
  facet normal 0 0 1
    outer loop
      vertex 10.8938 8.04062 31
      vertex 15.5625 4.66875 31
      vertex 15.5625 7.52187 31
    endloop
  endfacet
  facet normal 0 0 1
    outer loop
      vertex 15.5625 4.66875 31
      vertex 10.8938 8.04062 31
      vertex 8.55937 5.1875 31
    endloop
  endfacet
  facet normal -0 0 1
    outer loop
      vertex 10.8938 8.04062 31
      vertex 15.5625 7.52187 31
      vertex 13.4875 9.59687 31
    endloop
  endfacet
  facet normal -0 0 1
    outer loop
      vertex 13.4875 9.59687 31
      vertex 15.5625 7.52187 31
      vertex 16.6 9.59687 31
    endloop
  endfacet
  facet normal -0 0 1
    outer loop
      vertex 19.9719 3.89062 31
      vertex 21.165 -5.08375 31
      vertex 21.165 5.08375 31
    endloop
  endfacet
  facet normal 0 0 1
    outer loop
      vertex 19.9719 3.89062 31
      vertex 19.9719 -3.89062 31
      vertex 21.165 -5.08375 31
    endloop
  endfacet
  facet normal -0 0 1
    outer loop
      vertex 16.3406 3.89062 31
      vertex 19.9719 -3.89062 31
      vertex 19.9719 3.89062 31
    endloop
  endfacet
  facet normal 0 0 1
    outer loop
      vertex 16.3406 3.89062 31
      vertex 16.3406 -3.89062 31
      vertex 19.9719 -3.89062 31
    endloop
  endfacet
  facet normal 0 0 1
    outer loop
      vertex 15.5625 4.66875 31
      vertex 16.3406 -3.89062 31
      vertex 16.3406 3.89062 31
    endloop
  endfacet
  facet normal 0 0 1
    outer loop
      vertex 16.3406 -3.89062 31
      vertex 15.5625 4.66875 31
      vertex 15.5625 -4.66875 31
    endloop
  endfacet
  facet normal 0 0 1
    outer loop
      vertex 20.3566 19.4201 31
      vertex 25 20 31
      vertex 24.6194 21.9134 31
    endloop
  endfacet
  facet normal 0 0 1
    outer loop
      vertex 25 20 31
      vertex 21.165 5.08375 31
      vertex 25 -20 31
    endloop
  endfacet
  facet normal 0 0 1
    outer loop
      vertex 20.3566 19.4201 31
      vertex 24.6194 21.9134 31
      vertex 23.5355 23.5355 31
    endloop
  endfacet
  facet normal -0 0 1
    outer loop
      vertex 21.165 -5.08375 31
      vertex 25 -20 31
      vertex 21.165 5.08375 31
    endloop
  endfacet
  facet normal 0 0 1
    outer loop
      vertex 19.7644 20.0777 31
      vertex 23.5355 23.5355 31
      vertex 21.9134 24.6194 31
    endloop
  endfacet
  facet normal -0 0 1
    outer loop
      vertex 21.165 -16.932 31
      vertex 25 -20 31
      vertex 21.165 -5.08375 31
    endloop
  endfacet
  facet normal 0 0 1
    outer loop
      vertex 25 20 31
      vertex 21.165 16.932 31
      vertex 21.165 5.08375 31
    endloop
  endfacet
  facet normal 0 0 1
    outer loop
      vertex 25 20 31
      vertex 21.0725 17.8121 31
      vertex 21.165 16.932 31
    endloop
  endfacet
  facet normal 0 0 1
    outer loop
      vertex 25 20 31
      vertex 20.799 18.6537 31
      vertex 21.0725 17.8121 31
    endloop
  endfacet
  facet normal 0 0 1
    outer loop
      vertex 25 20 31
      vertex 20.3566 19.4201 31
      vertex 20.799 18.6537 31
    endloop
  endfacet
  facet normal 0 0 1
    outer loop
      vertex 19.0485 20.5979 31
      vertex 21.9134 24.6194 31
      vertex 20 25 31
    endloop
  endfacet
  facet normal 0 0 1
    outer loop
      vertex 23.5355 23.5355 31
      vertex 19.7644 20.0777 31
      vertex 20.3566 19.4201 31
    endloop
  endfacet
  facet normal 0 0 1
    outer loop
      vertex 21.9134 24.6194 31
      vertex 19.0485 20.5979 31
      vertex 19.7644 20.0777 31
    endloop
  endfacet
  facet normal 0 0 1
    outer loop
      vertex 20 25 31
      vertex 18.2401 20.9578 31
      vertex 19.0485 20.5979 31
    endloop
  endfacet
  facet normal 0 0 1
    outer loop
      vertex 20 25 31
      vertex 17.3745 21.1418 31
      vertex 18.2401 20.9578 31
    endloop
  endfacet
  facet normal 0 0 1
    outer loop
      vertex 20 25 31
      vertex 16.4895 21.1418 31
      vertex 17.3745 21.1418 31
    endloop
  endfacet
  facet normal 0 0 1
    outer loop
      vertex 20 25 31
      vertex 5.06056 21.1418 31
      vertex 16.4895 21.1418 31
    endloop
  endfacet
  facet normal 0 0 1
    outer loop
      vertex 3.89062 19.9719 31
      vertex -3.89062 19.9719 31
      vertex 3.89062 16.3406 31
    endloop
  endfacet
  facet normal 0 0 1
    outer loop
      vertex 5.06056 21.1418 31
      vertex -3.89062 19.9719 31
      vertex 3.89062 19.9719 31
    endloop
  endfacet
  facet normal 0 0 1
    outer loop
      vertex -5.06056 21.1418 31
      vertex 5.06056 21.1418 31
      vertex 20 25 31
    endloop
  endfacet
  facet normal 0 0 1
    outer loop
      vertex 5.06056 21.1418 31
      vertex -5.06056 21.1418 31
      vertex -3.89062 19.9719 31
    endloop
  endfacet
  facet normal -0 0 1
    outer loop
      vertex -20 25 31
      vertex -5.06056 21.1418 31
      vertex 20 25 31
    endloop
  endfacet
  facet normal 0 0 1
    outer loop
      vertex -5.06056 21.1418 31
      vertex -20 25 31
      vertex -17.3745 21.1418 31
    endloop
  endfacet
  facet normal 0 0 1
    outer loop
      vertex -20 25 31
      vertex -18.2401 20.9578 31
      vertex -17.3745 21.1418 31
    endloop
  endfacet
  facet normal 0 0 1
    outer loop
      vertex -20 25 31
      vertex -19.0485 20.5979 31
      vertex -18.2401 20.9578 31
    endloop
  endfacet
  facet normal -0 0 1
    outer loop
      vertex -21.9134 24.6194 31
      vertex -19.0485 20.5979 31
      vertex -20 25 31
    endloop
  endfacet
  facet normal 0 0 1
    outer loop
      vertex -19.0485 20.5979 31
      vertex -21.9134 24.6194 31
      vertex -19.7644 20.0777 31
    endloop
  endfacet
  facet normal -0 0 1
    outer loop
      vertex -23.5355 23.5355 31
      vertex -19.7644 20.0777 31
      vertex -21.9134 24.6194 31
    endloop
  endfacet
  facet normal 0 0 1
    outer loop
      vertex -19.7644 20.0777 31
      vertex -23.5355 23.5355 31
      vertex -20.3566 19.4201 31
    endloop
  endfacet
  facet normal 0 0 1
    outer loop
      vertex -25 20 31
      vertex -21.165 5.08375 31
      vertex -21.165 16.932 31
    endloop
  endfacet
  facet normal 0 0 1
    outer loop
      vertex -21.165 5.08375 31
      vertex -25 20 31
      vertex -21.165 -5.08375 31
    endloop
  endfacet
  facet normal 0 0 1
    outer loop
      vertex -20.3566 19.4201 31
      vertex -25 20 31
      vertex -20.799 18.6537 31
    endloop
  endfacet
  facet normal -0 0 1
    outer loop
      vertex -25 20 31
      vertex -20.3566 19.4201 31
      vertex -24.6194 21.9134 31
    endloop
  endfacet
  facet normal -0 0 1
    outer loop
      vertex -24.6194 21.9134 31
      vertex -20.3566 19.4201 31
      vertex -23.5355 23.5355 31
    endloop
  endfacet
  facet normal -0 0 1
    outer loop
      vertex 21.0725 -17.8121 31
      vertex 25 -20 31
      vertex 21.165 -16.932 31
    endloop
  endfacet
  facet normal -0 0 1
    outer loop
      vertex 20.799 -18.6537 31
      vertex 25 -20 31
      vertex 21.0725 -17.8121 31
    endloop
  endfacet
  facet normal -0 0 1
    outer loop
      vertex 20.3566 -19.4201 31
      vertex 25 -20 31
      vertex 20.799 -18.6537 31
    endloop
  endfacet
  facet normal 0 0 1
    outer loop
      vertex 25 -20 31
      vertex 20.3566 -19.4201 31
      vertex 24.6194 -21.9134 31
    endloop
  endfacet
  facet normal 0 0 1
    outer loop
      vertex 24.6194 -21.9134 31
      vertex 20.3566 -19.4201 31
      vertex 23.5355 -23.5355 31
    endloop
  endfacet
  facet normal -0 0 1
    outer loop
      vertex 19.7644 -20.0777 31
      vertex 23.5355 -23.5355 31
      vertex 20.3566 -19.4201 31
    endloop
  endfacet
  facet normal 0 0 1
    outer loop
      vertex 23.5355 -23.5355 31
      vertex 19.7644 -20.0777 31
      vertex 21.9134 -24.6194 31
    endloop
  endfacet
  facet normal -0 0 1
    outer loop
      vertex 19.0485 -20.5979 31
      vertex 21.9134 -24.6194 31
      vertex 19.7644 -20.0777 31
    endloop
  endfacet
  facet normal 0 0 1
    outer loop
      vertex 21.9134 -24.6194 31
      vertex 19.0485 -20.5979 31
      vertex 20 -25 31
    endloop
  endfacet
  facet normal -0 0 1
    outer loop
      vertex 18.2401 -20.9578 31
      vertex 20 -25 31
      vertex 19.0485 -20.5979 31
    endloop
  endfacet
  facet normal -0 0 1
    outer loop
      vertex 17.3745 -21.1418 31
      vertex 20 -25 31
      vertex 18.2401 -20.9578 31
    endloop
  endfacet
  facet normal -0 0 1
    outer loop
      vertex 5.06056 -21.1418 31
      vertex 20 -25 31
      vertex 17.3745 -21.1418 31
    endloop
  endfacet
  facet normal 0 0 1
    outer loop
      vertex -3.89062 -19.9719 31
      vertex 3.89062 -19.9719 31
      vertex -3.89062 -16.3406 31
    endloop
  endfacet
  facet normal 0 0 1
    outer loop
      vertex 3.89062 -19.9719 31
      vertex -3.89062 -19.9719 31
      vertex 5.06056 -21.1418 31
    endloop
  endfacet
  facet normal 0 0 1
    outer loop
      vertex -5.06056 -21.1418 31
      vertex 5.06056 -21.1418 31
      vertex -3.89062 -19.9719 31
    endloop
  endfacet
  facet normal 0 0 1
    outer loop
      vertex 5.06056 -21.1418 31
      vertex -5.06056 -21.1418 31
      vertex 20 -25 31
    endloop
  endfacet
  facet normal 0 0 1
    outer loop
      vertex -20 -25 31
      vertex -5.06056 -21.1418 31
      vertex -16.4895 -21.1418 31
    endloop
  endfacet
  facet normal 0 0 1
    outer loop
      vertex -20 -25 31
      vertex -16.4895 -21.1418 31
      vertex -17.3745 -21.1418 31
    endloop
  endfacet
  facet normal 0 0 1
    outer loop
      vertex -5.06056 -21.1418 31
      vertex -20 -25 31
      vertex 20 -25 31
    endloop
  endfacet
  facet normal 0 0 1
    outer loop
      vertex -18.2401 -20.9578 31
      vertex -20 -25 31
      vertex -17.3745 -21.1418 31
    endloop
  endfacet
  facet normal 0 0 1
    outer loop
      vertex -19.0485 -20.5979 31
      vertex -20 -25 31
      vertex -18.2401 -20.9578 31
    endloop
  endfacet
  facet normal 0 0 1
    outer loop
      vertex -21.9134 -24.6194 31
      vertex -19.0485 -20.5979 31
      vertex -19.7644 -20.0777 31
    endloop
  endfacet
  facet normal 0 0 1
    outer loop
      vertex -23.5355 -23.5355 31
      vertex -19.7644 -20.0777 31
      vertex -20.3566 -19.4201 31
    endloop
  endfacet
  facet normal 0 0 1
    outer loop
      vertex -25 -20 31
      vertex -20.3566 -19.4201 31
      vertex -20.799 -18.6537 31
    endloop
  endfacet
  facet normal 0 0 1
    outer loop
      vertex -25 -20 31
      vertex -20.799 -18.6537 31
      vertex -21.0725 -17.8121 31
    endloop
  endfacet
  facet normal 0 0 1
    outer loop
      vertex -19.0485 -20.5979 31
      vertex -21.9134 -24.6194 31
      vertex -20 -25 31
    endloop
  endfacet
  facet normal 0 0 1
    outer loop
      vertex -25 -20 31
      vertex -21.0725 -17.8121 31
      vertex -21.165 -16.932 31
    endloop
  endfacet
  facet normal 0 0 1
    outer loop
      vertex -25 -20 31
      vertex -21.165 -5.08375 31
      vertex -25 20 31
    endloop
  endfacet
  facet normal 0 0 1
    outer loop
      vertex -20.799 18.6537 31
      vertex -25 20 31
      vertex -21.0725 17.8121 31
    endloop
  endfacet
  facet normal 0 0 1
    outer loop
      vertex -21.165 -5.08375 31
      vertex -25 -20 31
      vertex -21.165 -16.932 31
    endloop
  endfacet
  facet normal 0 0 1
    outer loop
      vertex -21.0725 17.8121 31
      vertex -25 20 31
      vertex -21.165 16.932 31
    endloop
  endfacet
  facet normal 0 0 1
    outer loop
      vertex -20.3566 -19.4201 31
      vertex -25 -20 31
      vertex -24.6194 -21.9134 31
    endloop
  endfacet
  facet normal 0 0 1
    outer loop
      vertex -19.7644 -20.0777 31
      vertex -23.5355 -23.5355 31
      vertex -21.9134 -24.6194 31
    endloop
  endfacet
  facet normal 0 0 1
    outer loop
      vertex -20.3566 -19.4201 31
      vertex -24.6194 -21.9134 31
      vertex -23.5355 -23.5355 31
    endloop
  endfacet
  facet normal -0 0 1
    outer loop
      vertex 15.5625 -7.52187 31
      vertex 16.6 -9.59688 31
      vertex 16.6 -7.52187 31
    endloop
  endfacet
  facet normal 0 0 1
    outer loop
      vertex 15.5625 -7.52187 31
      vertex 13.4875 -9.59688 31
      vertex 16.6 -9.59688 31
    endloop
  endfacet
  facet normal 0 0 1
    outer loop
      vertex 15.5625 4.66875 31
      vertex 8.55937 5.1875 31
      vertex 15.5625 -4.66875 31
    endloop
  endfacet
  facet normal 0 0 1
    outer loop
      vertex 8.55937 -5.1875 31
      vertex 15.5625 -4.66875 31
      vertex 8.55937 5.1875 31
    endloop
  endfacet
  facet normal 0 -0 1
    outer loop
      vertex 10.8937 -8.04062 31
      vertex 15.5625 -4.66875 31
      vertex 8.55937 -5.1875 31
    endloop
  endfacet
  facet normal 0 0 1
    outer loop
      vertex 15.5625 -4.66875 31
      vertex 10.8937 -8.04062 31
      vertex 15.5625 -7.52187 31
    endloop
  endfacet
  facet normal 0 0 1
    outer loop
      vertex 15.5625 -7.52187 31
      vertex 10.8937 -8.04062 31
      vertex 13.4875 -9.59688 31
    endloop
  endfacet
  facet normal -0 0 1
    outer loop
      vertex 7.52187 15.5625 31
      vertex 9.59688 13.4875 31
      vertex 9.59688 16.6 31
    endloop
  endfacet
  facet normal 0 0 1
    outer loop
      vertex 7.52187 15.5625 31
      vertex 9.59688 16.6 31
      vertex 7.52187 16.6 31
    endloop
  endfacet
  facet normal 0 0 1
    outer loop
      vertex 9.59688 13.4875 31
      vertex 7.52187 15.5625 31
      vertex 8.04062 10.8937 31
    endloop
  endfacet
  facet normal -0 0 1
    outer loop
      vertex 4.66875 15.5625 31
      vertex 8.04062 10.8937 31
      vertex 7.52187 15.5625 31
    endloop
  endfacet
  facet normal 0 0 1
    outer loop
      vertex 8.04062 10.8937 31
      vertex 4.66875 15.5625 31
      vertex 5.1875 8.55937 31
    endloop
  endfacet
  facet normal 0 0 1
    outer loop
      vertex 3.89062 16.3406 31
      vertex 5.1875 8.55937 31
      vertex 4.66875 15.5625 31
    endloop
  endfacet
  facet normal 0 0 1
    outer loop
      vertex -3.89062 16.3406 31
      vertex 3.89062 16.3406 31
      vertex -3.89062 19.9719 31
    endloop
  endfacet
  facet normal 0 0 1
    outer loop
      vertex 3.89062 16.3406 31
      vertex -3.89062 16.3406 31
      vertex 5.1875 8.55937 31
    endloop
  endfacet
  facet normal -0 0 1
    outer loop
      vertex -4.66875 15.5625 31
      vertex 5.1875 8.55937 31
      vertex -3.89062 16.3406 31
    endloop
  endfacet
  facet normal 0 0 1
    outer loop
      vertex -4.66875 15.5625 31
      vertex -5.1875 8.55937 31
      vertex 5.1875 8.55937 31
    endloop
  endfacet
  facet normal 0 0 1
    outer loop
      vertex -8.04062 10.8938 31
      vertex -4.66875 15.5625 31
      vertex -7.52187 15.5625 31
    endloop
  endfacet
  facet normal 0 0 1
    outer loop
      vertex -4.66875 15.5625 31
      vertex -8.04062 10.8938 31
      vertex -5.1875 8.55937 31
    endloop
  endfacet
  facet normal -0 0 1
    outer loop
      vertex -16.3406 3.89062 31
      vertex -15.5625 -4.66875 31
      vertex -15.5625 4.66875 31
    endloop
  endfacet
  facet normal 0 0 1
    outer loop
      vertex -16.3406 3.89062 31
      vertex -16.3406 -3.89062 31
      vertex -15.5625 -4.66875 31
    endloop
  endfacet
  facet normal -0 0 1
    outer loop
      vertex -19.9719 3.89062 31
      vertex -16.3406 -3.89062 31
      vertex -16.3406 3.89062 31
    endloop
  endfacet
  facet normal 0 0 1
    outer loop
      vertex -19.9719 3.89062 31
      vertex -19.9719 -3.89062 31
      vertex -16.3406 -3.89062 31
    endloop
  endfacet
  facet normal 0 0 1
    outer loop
      vertex -21.165 5.08375 31
      vertex -19.9719 -3.89062 31
      vertex -19.9719 3.89062 31
    endloop
  endfacet
  facet normal 0 0 1
    outer loop
      vertex -19.9719 -3.89062 31
      vertex -21.165 5.08375 31
      vertex -21.165 -5.08375 31
    endloop
  endfacet
  facet normal 0 0 1
    outer loop
      vertex -15.5625 4.66875 31
      vertex -8.55937 5.1875 31
      vertex -10.8937 8.04062 31
    endloop
  endfacet
  facet normal 0 0 1
    outer loop
      vertex -8.55937 5.1875 31
      vertex -15.5625 4.66875 31
      vertex -8.55937 -5.1875 31
    endloop
  endfacet
  facet normal 0 0 1
    outer loop
      vertex -15.5625 7.52187 31
      vertex -10.8937 8.04062 31
      vertex -13.4875 9.59688 31
    endloop
  endfacet
  facet normal -0 0 1
    outer loop
      vertex -15.5625 -4.66875 31
      vertex -8.55937 -5.1875 31
      vertex -15.5625 4.66875 31
    endloop
  endfacet
  facet normal 0 0 1
    outer loop
      vertex -10.8937 8.04062 31
      vertex -15.5625 7.52187 31
      vertex -15.5625 4.66875 31
    endloop
  endfacet
  facet normal -0 0 1
    outer loop
      vertex -16.6 9.59688 31
      vertex -15.5625 7.52187 31
      vertex -13.4875 9.59688 31
    endloop
  endfacet
  facet normal 0 0 1
    outer loop
      vertex -15.5625 7.52187 31
      vertex -16.6 9.59688 31
      vertex -16.6 7.52187 31
    endloop
  endfacet
  facet normal 0 0 1
    outer loop
      vertex -8.55937 -5.1875 31
      vertex -15.5625 -4.66875 31
      vertex -10.8938 -8.04062 31
    endloop
  endfacet
  facet normal -0 0 1
    outer loop
      vertex -15.5625 -7.52187 31
      vertex -10.8938 -8.04062 31
      vertex -15.5625 -4.66875 31
    endloop
  endfacet
  facet normal 0 0 1
    outer loop
      vertex -10.8938 -8.04062 31
      vertex -15.5625 -7.52187 31
      vertex -13.4875 -9.59687 31
    endloop
  endfacet
  facet normal 0 0 1
    outer loop
      vertex -16.6 -9.59687 31
      vertex -15.5625 -7.52187 31
      vertex -16.6 -7.52187 31
    endloop
  endfacet
  facet normal 0 0 1
    outer loop
      vertex -15.5625 -7.52187 31
      vertex -16.6 -9.59687 31
      vertex -13.4875 -9.59687 31
    endloop
  endfacet
  facet normal -1 0 0
    outer loop
      vertex -25 -20 0
      vertex -25 20 31
      vertex -25 20 0
    endloop
  endfacet
  facet normal -1 -0 0
    outer loop
      vertex -25 20 31
      vertex -25 -20 0
      vertex -25 -20 31
    endloop
  endfacet
  facet normal -0.55557 -0.83147 0
    outer loop
      vertex -23.5355 -23.5355 0
      vertex -21.9134 -24.6194 31
      vertex -23.5355 -23.5355 31
    endloop
  endfacet
  facet normal -0.55557 -0.83147 -0
    outer loop
      vertex -21.9134 -24.6194 31
      vertex -23.5355 -23.5355 0
      vertex -21.9134 -24.6194 0
    endloop
  endfacet
  facet normal -0.195091 -0.980785 0
    outer loop
      vertex -21.9134 -24.6194 0
      vertex -20 -25 31
      vertex -21.9134 -24.6194 31
    endloop
  endfacet
  facet normal -0.195091 -0.980785 -0
    outer loop
      vertex -20 -25 31
      vertex -21.9134 -24.6194 0
      vertex -20 -25 0
    endloop
  endfacet
  facet normal 0 1 -0
    outer loop
      vertex 20 25 0
      vertex -20 25 31
      vertex 20 25 31
    endloop
  endfacet
  facet normal 0 1 0
    outer loop
      vertex -20 25 31
      vertex 20 25 0
      vertex -20 25 0
    endloop
  endfacet
  facet normal -0.83147 0.55557 0
    outer loop
      vertex -24.6194 21.9134 0
      vertex -23.5355 23.5355 31
      vertex -23.5355 23.5355 0
    endloop
  endfacet
  facet normal -0.83147 0.55557 0
    outer loop
      vertex -23.5355 23.5355 31
      vertex -24.6194 21.9134 0
      vertex -24.6194 21.9134 31
    endloop
  endfacet
  facet normal -0.83147 -0.55557 0
    outer loop
      vertex -23.5355 -23.5355 0
      vertex -24.6194 -21.9134 31
      vertex -24.6194 -21.9134 0
    endloop
  endfacet
  facet normal -0.83147 -0.55557 0
    outer loop
      vertex -24.6194 -21.9134 31
      vertex -23.5355 -23.5355 0
      vertex -23.5355 -23.5355 31
    endloop
  endfacet
  facet normal -0.980785 -0.195091 0
    outer loop
      vertex -24.6194 -21.9134 0
      vertex -25 -20 31
      vertex -25 -20 0
    endloop
  endfacet
  facet normal -0.980785 -0.195091 0
    outer loop
      vertex -25 -20 31
      vertex -24.6194 -21.9134 0
      vertex -24.6194 -21.9134 31
    endloop
  endfacet
  facet normal 0.55557 0.83147 -0
    outer loop
      vertex 23.5355 23.5355 0
      vertex 21.9134 24.6194 31
      vertex 23.5355 23.5355 31
    endloop
  endfacet
  facet normal 0.55557 0.83147 0
    outer loop
      vertex 21.9134 24.6194 31
      vertex 23.5355 23.5355 0
      vertex 21.9134 24.6194 0
    endloop
  endfacet
  facet normal -0.55557 0.83147 0
    outer loop
      vertex -21.9134 24.6194 0
      vertex -23.5355 23.5355 31
      vertex -21.9134 24.6194 31
    endloop
  endfacet
  facet normal -0.55557 0.83147 0
    outer loop
      vertex -23.5355 23.5355 31
      vertex -21.9134 24.6194 0
      vertex -23.5355 23.5355 0
    endloop
  endfacet
  facet normal -0.195091 0.980785 0
    outer loop
      vertex -20 25 0
      vertex -21.9134 24.6194 31
      vertex -20 25 31
    endloop
  endfacet
  facet normal -0.195091 0.980785 0
    outer loop
      vertex -21.9134 24.6194 31
      vertex -20 25 0
      vertex -21.9134 24.6194 0
    endloop
  endfacet
endsolid OpenSCAD_Model
